<svg width="270" height="158" viewBox="0 0 270 158" fill="none" xmlns="http://www.w3.org/2000/svg">
<rect width="270" height="157.57" fill="#D9D9D9"/>
<path d="M220.982 16.8262C222.076 16.8262 222.822 17.0262 223.222 17.4262C223.622 17.7995 223.822 18.5195 223.822 19.5862V35.6262C223.822 38.4528 223.116 40.5995 221.702 42.0662C220.289 43.5062 218.196 44.2262 215.422 44.2262C212.622 44.2262 210.356 43.5462 208.622 42.1862L210.262 38.2262C210.822 38.6528 211.529 38.9995 212.382 39.2662C213.236 39.5062 214.049 39.6262 214.822 39.6262C216.182 39.6262 217.196 39.3062 217.862 38.6662C218.529 37.9995 218.862 36.9862 218.862 35.6262V21.2262H211.822V16.8262H220.982ZM228.409 19.5462C230.569 17.3328 233.529 16.2262 237.289 16.2262C239.155 16.2262 240.769 16.5462 242.129 17.1862C243.515 17.8262 244.569 18.7195 245.289 19.8662C246.035 21.0128 246.409 22.3195 246.409 23.7862C246.409 25.1995 246.009 26.4262 245.209 27.4662C244.435 28.5062 243.289 29.3328 241.769 29.9462C243.422 30.3195 244.755 31.1062 245.769 32.3062C246.809 33.5062 247.329 34.8928 247.329 36.4662C247.329 38.8662 246.409 40.7595 244.569 42.1462C242.755 43.5062 240.249 44.1862 237.049 44.1862C235.182 44.1862 233.449 43.9462 231.849 43.4662C230.275 42.9595 229.075 42.2928 228.249 41.4662L229.849 37.9062C230.649 38.5728 231.702 39.1062 233.009 39.5062C234.315 39.8795 235.662 40.0662 237.049 40.0662C238.782 40.0662 240.129 39.7462 241.089 39.1062C242.075 38.4395 242.569 37.5328 242.569 36.3862C242.569 33.5862 240.462 32.1862 236.249 32.1862H233.609V28.1062H235.569C237.515 28.1062 239.009 27.7728 240.049 27.1062C241.115 26.4128 241.649 25.4128 241.649 24.1062C241.649 22.9595 241.209 22.0395 240.329 21.3462C239.449 20.6528 238.289 20.3062 236.849 20.3062C234.209 20.3062 232.075 21.1195 230.449 22.7462L228.409 19.5462Z" fill="black"/>
<path d="M130.765 16.8262C131.859 16.8262 132.605 17.0262 133.005 17.4262C133.405 17.7995 133.605 18.5195 133.605 19.5862V35.6262C133.605 38.4528 132.899 40.5995 131.485 42.0662C130.072 43.5062 127.979 44.2262 125.205 44.2262C122.405 44.2262 120.139 43.5462 118.405 42.1862L120.045 38.2262C120.605 38.6528 121.312 38.9995 122.165 39.2662C123.019 39.5062 123.832 39.6262 124.605 39.6262C125.965 39.6262 126.979 39.3062 127.645 38.6662C128.312 37.9995 128.645 36.9862 128.645 35.6262V21.2262H121.605V16.8262H130.765ZM138.192 40.3062C138.192 38.2795 138.458 36.5595 138.992 35.1462C139.552 33.7328 140.458 32.5062 141.712 31.4662C142.992 30.4262 144.725 29.4795 146.912 28.6262C148.112 28.1462 149.058 27.7062 149.752 27.3062C150.445 26.8795 150.938 26.4262 151.232 25.9462C151.525 25.4662 151.672 24.8528 151.672 24.1062C151.672 23.0128 151.245 22.1328 150.392 21.4662C149.565 20.7995 148.418 20.4662 146.952 20.4662C145.725 20.4662 144.538 20.7328 143.392 21.2662C142.245 21.7728 141.258 22.4928 140.432 23.4262L138.152 20.1862C139.298 18.9328 140.658 17.9595 142.232 17.2662C143.832 16.5728 145.498 16.2262 147.232 16.2262C149.125 16.2262 150.765 16.5595 152.152 17.2262C153.538 17.8662 154.592 18.7595 155.312 19.9062C156.058 21.0528 156.432 22.3862 156.432 23.9062C156.432 26.0128 155.872 27.7062 154.752 28.9862C153.658 30.2662 151.845 31.3595 149.312 32.2662C147.738 32.8262 146.485 33.4128 145.552 34.0262C144.645 34.6395 143.992 35.3728 143.592 36.2262C143.192 37.0528 142.978 38.1328 142.952 39.4662H156.312V43.6262H138.192V40.3062Z" fill="black"/>
<path d="M42.5274 16.8262C43.6208 16.8262 44.3674 17.0262 44.7674 17.4262C45.1674 17.7995 45.3674 18.5195 45.3674 19.5862V35.6262C45.3674 38.4528 44.6608 40.5995 43.2474 42.0662C41.8341 43.5062 39.7408 44.2262 36.9674 44.2262C34.1674 44.2262 31.9008 43.5462 30.1674 42.1862L31.8074 38.2262C32.3674 38.6528 33.0741 38.9995 33.9274 39.2662C34.7808 39.5062 35.5941 39.6262 36.3674 39.6262C37.7274 39.6262 38.7408 39.3062 39.4074 38.6662C40.0741 37.9995 40.4074 36.9862 40.4074 35.6262V21.2262H33.3674V16.8262H42.5274ZM66.1937 43.6262H50.8737V39.4662H56.1937V23.3462H50.8737V19.7062L55.0737 19.5862C56.1403 19.5595 56.7537 19.0662 56.9137 18.1062L57.1537 16.8262H60.8737V39.4662H66.1937V43.6262Z" fill="black"/>
<path fill-rule="evenodd" clip-rule="evenodd" d="M141.411 60.823C142.05 60.2614 143.087 60.2614 143.727 60.823L153.553 69.4519C154.193 70.0135 154.193 70.9241 153.553 71.4857L143.727 80.1145C143.087 80.6762 142.05 80.6762 141.411 80.1145C140.771 79.5529 140.771 78.6423 141.411 78.0807L148.441 71.9069H122.916C122.012 71.9069 121.279 71.2631 121.279 70.4688C121.279 69.6745 122.012 69.0307 122.916 69.0307H148.441L141.411 62.8569C140.771 62.2953 140.771 61.3847 141.411 60.823Z" fill="#1AFF00"/>
<path fill-rule="evenodd" clip-rule="evenodd" d="M38.4915 68.7711C37.9236 68.2583 37.9236 67.4269 38.4915 66.9141L47.2175 59.0356C47.7855 58.5229 48.7063 58.5229 49.2742 59.0356L58.0002 66.9141C58.5682 67.4269 58.5682 68.2583 58.0002 68.7711C57.4323 69.2839 56.5115 69.2839 55.9435 68.7711L49.7002 63.1342V83.5996C49.7002 84.3248 49.0491 84.9127 48.2459 84.9127C47.4427 84.9127 46.7915 84.3248 46.7915 83.5996V63.1342L40.5483 68.7711C39.9803 69.2839 39.0595 69.2839 38.4915 68.7711Z" fill="#FF0000"/>
<path fill-rule="evenodd" clip-rule="evenodd" d="M244.297 65.8244C245.581 68.9882 245.514 72.4265 244.107 75.5535C243.374 77.182 241.922 79.0404 240.326 80.6451C240.106 80.8658 239.88 81.0854 239.649 81.3024H243.055C244.247 81.3024 245.213 82.1106 245.213 83.1075C245.213 84.1045 244.247 84.9127 243.055 84.9127H233.901C232.709 84.9127 231.743 84.1045 231.743 83.1075V75.4488C231.743 74.4518 232.709 73.6436 233.901 73.6436C235.092 73.6436 236.058 74.4518 236.058 75.4488V79.2392C236.377 78.9528 236.696 78.6505 237.009 78.3359C238.441 76.895 239.569 75.3892 240.068 74.2817C241.123 71.9365 241.173 69.3577 240.21 66.9849C239.248 64.612 237.331 62.5919 234.788 61.2686C232.244 59.9454 229.231 59.4009 226.261 59.728C223.291 60.055 220.549 61.2334 218.502 63.0624C216.454 64.8913 215.228 67.2576 215.032 69.7581C214.836 72.2585 215.682 74.7385 217.427 76.7753C219.172 78.8122 221.707 80.28 224.6 80.9285C225.751 81.1866 226.434 82.1764 226.126 83.1394C225.817 84.1024 224.634 84.6739 223.483 84.4159C219.625 83.5511 216.246 81.5941 213.919 78.8783C211.593 76.1625 210.464 72.8559 210.726 69.5219C210.987 66.188 212.622 63.0329 215.352 60.5943C218.082 58.1558 221.738 56.5846 225.698 56.1485C229.657 55.7124 233.675 56.4383 237.067 58.2027C240.458 59.967 243.013 62.6606 244.297 65.8244Z" fill="#0026FF"/>
</svg>
