<svg width="270" height="158" viewBox="0 0 270 158" fill="none" xmlns="http://www.w3.org/2000/svg">
<rect width="270" height="157.574" fill="#D9D9D9"/>
<path d="M238.43 38.3758V43.6558H217.15V38.7758L230.51 22.1358H217.67V16.8558H238.19V21.7358L224.79 38.3758H238.43Z" fill="black"/>
<path d="M140.656 43.6558H134.656V34.4558L124.616 16.8558H131.416L137.736 28.8958L144.016 16.8558H150.696L140.656 34.4558V43.6558Z" fill="black"/>
<path d="M53.4409 43.6558L47.8809 34.4558L42.7609 43.6558H35.7609L44.3609 30.0158L36.1609 16.8558H43.4409L48.4809 25.4958L53.3209 16.8558H60.3209L51.9609 29.9358L60.7209 43.6558H53.4409Z" fill="black"/>
<path fill-rule="evenodd" clip-rule="evenodd" d="M141.411 61.5079C142.05 60.94 143.087 60.94 143.727 61.5079L153.553 70.2339C154.193 70.8019 154.193 71.7227 153.553 72.2907L143.727 81.0167C143.087 81.5846 142.05 81.5846 141.411 81.0167C140.771 80.4487 140.771 79.5279 141.411 78.9599L148.441 72.7166H122.916C122.012 72.7166 121.279 72.0655 121.279 71.2623C121.279 70.4591 122.012 69.808 122.916 69.808H148.441L141.411 63.5647C140.771 62.9967 140.771 62.0759 141.411 61.5079Z" fill="#1AFF00"/>
<path fill-rule="evenodd" clip-rule="evenodd" d="M38.4915 69.5455C37.9236 69.027 37.9236 68.1862 38.4915 67.6676L47.2175 59.7004C47.7855 59.1818 48.7063 59.1818 49.2742 59.7004L58.0002 67.6676C58.5682 68.1862 58.5682 69.027 58.0002 69.5455C57.4323 70.0641 56.5115 70.0641 55.9435 69.5455L49.7002 63.8451V84.541C49.7002 85.2744 49.0491 85.8689 48.2459 85.8689C47.4427 85.8689 46.7915 85.2744 46.7915 84.541V63.8451L40.5483 69.5455C39.9803 70.0641 39.0595 70.0641 38.4915 69.5455Z" fill="#FF0000"/>
<path fill-rule="evenodd" clip-rule="evenodd" d="M244.297 66.5656C245.581 69.765 245.514 73.242 244.107 76.4042C243.374 78.0511 241.922 79.9304 240.326 81.5531C240.106 81.7764 239.88 81.9985 239.649 82.2178H243.055C244.247 82.2178 245.213 83.0352 245.213 84.0434C245.213 85.0516 244.247 85.8689 243.055 85.8689H233.901C232.709 85.8689 231.743 85.0516 231.743 84.0434V76.2983C231.743 75.2901 232.709 74.4728 233.901 74.4728C235.092 74.4728 236.058 75.2901 236.058 76.2983V80.1314C236.377 79.8418 236.696 79.5361 237.009 79.2179C238.441 77.7609 239.569 76.2382 240.068 75.1182C241.123 72.7465 241.173 70.1387 240.21 67.7392C239.248 65.3396 237.331 63.2967 234.788 61.9585C232.244 60.6204 229.231 60.0698 226.261 60.4005C223.291 60.7313 220.549 61.923 218.502 63.7725C216.454 65.622 215.228 68.0149 215.032 70.5436C214.836 73.0722 215.682 75.5801 217.427 77.6399C219.172 79.6997 221.707 81.1839 224.6 81.8398C225.751 82.1008 226.434 83.1017 226.126 84.0756C225.817 85.0495 224.634 85.6274 223.483 85.3664C219.625 84.492 216.246 82.5129 213.919 79.7665C211.593 77.0201 210.464 73.6763 210.726 70.3048C210.987 66.9333 212.622 63.7427 215.352 61.2767C218.082 58.8106 221.738 57.2217 225.698 56.7807C229.657 56.3397 233.675 57.0739 237.067 58.8581C240.458 60.6423 243.013 63.3661 244.297 66.5656Z" fill="#0026FF"/>
</svg>
