<svg width="270" height="158" viewBox="0 0 270 158" fill="none" xmlns="http://www.w3.org/2000/svg">
<rect width="270" height="157.57" fill="#D9D9D9"/>
<path d="M219.967 16.8262C221.06 16.8262 221.807 17.0262 222.207 17.4262C222.607 17.7995 222.807 18.5195 222.807 19.5862V35.6262C222.807 38.4528 222.1 40.5995 220.687 42.0662C219.273 43.5062 217.18 44.2262 214.407 44.2262C211.607 44.2262 209.34 43.5462 207.607 42.1862L209.247 38.2262C209.807 38.6528 210.513 38.9995 211.367 39.2662C212.22 39.5062 213.033 39.6262 213.807 39.6262C215.167 39.6262 216.18 39.3062 216.847 38.6662C217.513 37.9995 217.847 36.9862 217.847 35.6262V21.2262H210.807V16.8262H219.967ZM245.393 21.9862C243.873 20.8928 241.98 20.3462 239.713 20.3462C237.473 20.3462 235.7 21.1462 234.393 22.7462C233.113 24.3195 232.473 26.5062 232.473 29.3062V29.8262C233.086 28.7328 234.02 27.8662 235.273 27.2262C236.526 26.5862 237.966 26.2662 239.593 26.2662C241.273 26.2662 242.766 26.6528 244.073 27.4262C245.38 28.1728 246.38 29.1995 247.073 30.5062C247.793 31.7862 248.153 33.2262 248.153 34.8262C248.153 36.6662 247.726 38.3062 246.873 39.7462C246.02 41.1862 244.86 42.2928 243.393 43.0662C241.953 43.8395 240.326 44.2262 238.513 44.2262C235.046 44.2262 232.393 43.0528 230.553 40.7062C228.713 38.3328 227.793 34.9328 227.793 30.5062C227.793 26.0262 228.846 22.5328 230.953 20.0262C233.06 17.4928 235.98 16.2262 239.713 16.2262C241.313 16.2262 242.686 16.3995 243.833 16.7462C244.98 17.0662 246.046 17.5995 247.033 18.3462L245.393 21.9862ZM238.433 29.9462C236.833 29.9462 235.553 30.4262 234.593 31.3862C233.633 32.3195 233.153 33.5728 233.153 35.1462C233.153 36.6662 233.633 37.9062 234.593 38.8662C235.58 39.8262 236.846 40.3062 238.393 40.3062C239.94 40.3062 241.193 39.8395 242.153 38.9062C243.113 37.9462 243.593 36.6928 243.593 35.1462C243.593 33.5995 243.113 32.3462 242.153 31.3862C241.22 30.4262 239.98 29.9462 238.433 29.9462Z" fill="black"/>
<path d="M130.101 16.8262C131.195 16.8262 131.941 17.0262 132.341 17.4262C132.741 17.7995 132.941 18.5195 132.941 19.5862V35.6262C132.941 38.4528 132.235 40.5995 130.821 42.0662C129.408 43.5062 127.315 44.2262 124.541 44.2262C121.741 44.2262 119.475 43.5462 117.741 42.1862L119.381 38.2262C119.941 38.6528 120.648 38.9995 121.501 39.2662C122.355 39.5062 123.168 39.6262 123.941 39.6262C125.301 39.6262 126.315 39.3062 126.981 38.6662C127.648 37.9995 127.981 36.9862 127.981 35.6262V21.2262H120.941V16.8262H130.101ZM146.568 44.1862C144.701 44.1862 143.008 43.9595 141.488 43.5062C139.968 43.0262 138.688 42.3462 137.648 41.4662L139.208 37.7062C140.088 38.3995 141.154 38.9462 142.408 39.3462C143.661 39.7462 144.968 39.9462 146.328 39.9462C148.168 39.9462 149.621 39.5328 150.688 38.7062C151.781 37.8528 152.328 36.7195 152.328 35.3062C152.328 33.7862 151.861 32.5995 150.928 31.7462C149.994 30.8662 148.714 30.4262 147.088 30.4262C146.048 30.4262 145.048 30.5862 144.088 30.9062C143.154 31.2262 142.341 31.6795 141.648 32.2662L138.808 30.3862L140.448 16.8262H155.368V20.9862H144.008L143.248 27.5462C144.634 26.7995 146.368 26.4262 148.448 26.4262C150.181 26.4262 151.701 26.7995 153.008 27.5462C154.341 28.2662 155.354 29.2795 156.048 30.5862C156.741 31.8662 157.088 33.3595 157.088 35.0662C157.088 37.7595 156.114 39.9595 154.168 41.6662C152.221 43.3462 149.688 44.1862 146.568 44.1862Z" fill="black"/>
<path d="M39.9493 16.8262C41.0426 16.8262 41.7893 17.0262 42.1893 17.4262C42.5893 17.7995 42.7893 18.5195 42.7893 19.5862V35.6262C42.7893 38.4528 42.0826 40.5995 40.6693 42.0662C39.256 43.5062 37.1626 44.2262 34.3893 44.2262C31.5893 44.2262 29.3226 43.5462 27.5893 42.1862L29.2293 38.2262C29.7893 38.6528 30.496 38.9995 31.3493 39.2662C32.2026 39.5062 33.016 39.6262 33.7893 39.6262C35.1493 39.6262 36.1626 39.3062 36.8293 38.6662C37.496 37.9995 37.8293 36.9862 37.8293 35.6262V21.2262H30.7893V16.8262H39.9493ZM69.2156 33.7062V37.7062H64.4556V43.6262H59.8956V37.7062H47.2156V34.0662L59.5356 16.8662H64.4556V33.7062H69.2156ZM59.8956 33.7062V22.7462L52.0556 33.7062H59.8956Z" fill="black"/>
<path fill-rule="evenodd" clip-rule="evenodd" d="M141.411 60.823C142.05 60.2614 143.087 60.2614 143.727 60.823L153.553 69.4519C154.193 70.0135 154.193 70.9241 153.553 71.4857L143.727 80.1145C143.087 80.6762 142.05 80.6762 141.411 80.1145C140.771 79.5529 140.771 78.6423 141.411 78.0807L148.441 71.9069H122.916C122.012 71.9069 121.279 71.2631 121.279 70.4688C121.279 69.6745 122.012 69.0307 122.916 69.0307H148.441L141.411 62.8569C140.771 62.2953 140.771 61.3847 141.411 60.823Z" fill="#1AFF00"/>
<path fill-rule="evenodd" clip-rule="evenodd" d="M38.4915 68.7711C37.9236 68.2583 37.9236 67.4269 38.4915 66.9141L47.2175 59.0356C47.7855 58.5229 48.7063 58.5229 49.2742 59.0356L58.0002 66.9141C58.5682 67.4269 58.5682 68.2583 58.0002 68.7711C57.4323 69.2839 56.5115 69.2839 55.9435 68.7711L49.7002 63.1342V83.5996C49.7002 84.3248 49.0491 84.9127 48.2459 84.9127C47.4427 84.9127 46.7915 84.3248 46.7915 83.5996V63.1342L40.5483 68.7711C39.9803 69.2839 39.0595 69.2839 38.4915 68.7711Z" fill="#FF0000"/>
<path fill-rule="evenodd" clip-rule="evenodd" d="M244.297 65.8244C245.581 68.9882 245.514 72.4265 244.107 75.5535C243.374 77.182 241.922 79.0404 240.326 80.6451C240.106 80.8658 239.88 81.0854 239.649 81.3024H243.055C244.247 81.3024 245.213 82.1106 245.213 83.1075C245.213 84.1045 244.247 84.9127 243.055 84.9127H233.901C232.709 84.9127 231.743 84.1045 231.743 83.1075V75.4488C231.743 74.4518 232.709 73.6436 233.901 73.6436C235.092 73.6436 236.058 74.4518 236.058 75.4488V79.2392C236.377 78.9528 236.696 78.6505 237.009 78.3359C238.441 76.895 239.569 75.3892 240.068 74.2817C241.123 71.9365 241.173 69.3577 240.21 66.9849C239.248 64.612 237.331 62.5919 234.788 61.2686C232.244 59.9454 229.231 59.4009 226.261 59.728C223.291 60.055 220.549 61.2334 218.502 63.0624C216.454 64.8913 215.228 67.2576 215.032 69.7581C214.836 72.2585 215.682 74.7385 217.427 76.7753C219.172 78.8122 221.707 80.28 224.6 80.9285C225.751 81.1866 226.434 82.1764 226.126 83.1394C225.817 84.1024 224.634 84.6739 223.483 84.4159C219.625 83.5511 216.246 81.5941 213.919 78.8783C211.593 76.1625 210.464 72.8559 210.726 69.5219C210.987 66.188 212.622 63.0329 215.352 60.5943C218.082 58.1558 221.738 56.5846 225.698 56.1485C229.657 55.7124 233.675 56.4383 237.067 58.2027C240.458 59.967 243.013 62.6606 244.297 65.8244Z" fill="#0026FF"/>
</svg>
