<svg width="270" height="180" viewBox="0 0 270 180" fill="none" xmlns="http://www.w3.org/2000/svg">
<rect width="270" height="180" fill="#D9D9D9"/>
<path d="M17.5618 161.18V159.11C18.5338 159.11 19.2358 158.93 19.6678 158.57C20.1118 158.198 20.3338 157.544 20.3338 156.608V148.76H22.4938V156.608C22.4938 157.544 22.3498 158.354 22.0618 159.038C21.7738 159.722 21.2698 160.25 20.5498 160.622C19.8418 160.994 18.8458 161.18 17.5618 161.18ZM33.2753 157.328C33.2753 158.06 33.1133 158.72 32.7893 159.308C32.4653 159.884 32.0033 160.34 31.4033 160.676C30.8153 161.012 30.1013 161.18 29.2613 161.18C27.9293 161.18 26.8913 160.73 26.1473 159.83C25.4033 158.93 25.0313 157.694 25.0313 156.122V153.584C25.0313 151.904 25.4273 150.65 26.2193 149.822C27.0113 148.994 28.1273 148.58 29.5673 148.58C30.0713 148.58 30.5933 148.64 31.1333 148.76C31.6853 148.88 32.2913 149.096 32.9513 149.408L32.1773 151.262C31.6373 151.01 31.1633 150.836 30.7553 150.74C30.3473 150.632 29.9693 150.578 29.6213 150.578C28.8653 150.578 28.2533 150.806 27.7853 151.262C27.3293 151.706 27.1013 152.48 27.1013 153.584V154.232C27.5213 153.86 27.9533 153.584 28.3973 153.404C28.8533 153.224 29.3033 153.134 29.7473 153.134C30.4673 153.134 31.0913 153.296 31.6193 153.62C32.1473 153.944 32.5553 154.394 32.8433 154.97C33.1313 155.546 33.2753 156.212 33.2753 156.968V157.328ZM27.1013 156.122C27.1013 157.154 27.2933 157.922 27.6773 158.426C28.0613 158.93 28.6013 159.182 29.2973 159.182C29.8973 159.182 30.3593 159.014 30.6833 158.678C31.0073 158.33 31.1693 157.88 31.1693 157.328V156.968C31.1693 156.404 31.0193 155.948 30.7193 155.6C30.4193 155.252 29.9873 155.078 29.4233 155.078C28.5713 155.078 27.7973 155.402 27.1013 156.05V156.122ZM37.0974 154.016H34.9194V151.874H37.0974V154.016ZM37.0974 161H34.9194V158.858H37.0974V161Z" fill="black"/>
<path d="M19.0188 135.18V133.11C19.9908 133.11 20.6928 132.93 21.1248 132.57C21.5688 132.198 21.7908 131.544 21.7908 130.608V122.76H23.9508V130.608C23.9508 131.544 23.8068 132.354 23.5188 133.038C23.2308 133.722 22.7268 134.25 22.0068 134.622C21.2988 134.994 20.3028 135.18 19.0188 135.18ZM26.5244 128.682L26.8844 122.76H33.1484V124.794H28.7924L28.6304 127.494C29.0504 127.386 29.5004 127.332 29.9804 127.332C31.1684 127.332 32.0984 127.644 32.7704 128.268C33.4424 128.88 33.7784 129.786 33.7784 130.986V131.472C33.7784 132.144 33.6404 132.762 33.3644 133.326C33.0884 133.89 32.6444 134.34 32.0324 134.676C31.4324 135.012 30.6344 135.18 29.6384 135.18C29.0864 135.18 28.5104 135.114 27.9104 134.982C27.3224 134.85 26.6744 134.628 25.9664 134.316L26.6324 132.462C27.2684 132.714 27.8024 132.9 28.2344 133.02C28.6784 133.128 29.1224 133.182 29.5664 133.182C30.2384 133.182 30.7424 133.044 31.0784 132.768C31.4264 132.492 31.6004 132.06 31.6004 131.472V130.986C31.6004 130.458 31.4444 130.038 31.1324 129.726C30.8324 129.414 30.3464 129.258 29.6744 129.258C29.3744 129.258 29.0624 129.3 28.7384 129.384C28.4144 129.456 28.0664 129.564 27.6944 129.708L26.5244 128.682ZM37.6403 128.016H35.4623V125.874H37.6403V128.016ZM37.6403 135H35.4623V132.858H37.6403V135Z" fill="black"/>
<path d="M18.9397 109.18V107.11C19.9117 107.11 20.6137 106.93 21.0457 106.57C21.4897 106.198 21.7117 105.544 21.7117 104.608V96.76H23.8717V104.608C23.8717 105.544 23.7277 106.354 23.4397 107.038C23.1517 107.722 22.6477 108.25 21.9277 108.622C21.2197 108.994 20.2237 109.18 18.9397 109.18ZM34.3293 106.228H33.0513V109H30.9633V106.228H25.7073V104.482C26.2473 103.642 26.7813 102.79 27.3093 101.926C27.8493 101.05 28.3533 100.18 28.8213 99.316C29.2893 98.44 29.6733 97.588 29.9733 96.76H32.3313C31.8873 97.984 31.2873 99.244 30.5313 100.54C29.7753 101.824 28.9953 103.078 28.1913 104.302H30.9633V102.448H33.0513V104.302H34.3293V106.228ZM37.7194 102.016H35.5414V99.874H37.7194V102.016ZM37.7194 109H35.5414V106.858H37.7194V109Z" fill="black"/>
<path d="M19.177 83.18V81.11C20.149 81.11 20.851 80.93 21.283 80.57C21.727 80.198 21.949 79.544 21.949 78.608V70.76H24.109V78.608C24.109 79.544 23.965 80.354 23.677 81.038C23.389 81.722 22.885 82.25 22.165 82.622C21.457 82.994 20.461 83.18 19.177 83.18ZM33.5046 79.67C33.5046 80.306 33.3726 80.894 33.1086 81.434C32.8446 81.962 32.4186 82.388 31.8306 82.712C31.2546 83.024 30.4806 83.18 29.5086 83.18C28.9566 83.18 28.3806 83.114 27.7806 82.982C27.1926 82.85 26.5446 82.628 25.8366 82.316L26.5026 80.462C27.1386 80.69 27.6726 80.87 28.1046 81.002C28.5486 81.122 28.9926 81.182 29.4366 81.182C30.0726 81.182 30.5526 81.056 30.8766 80.804C31.2126 80.54 31.3806 80.132 31.3806 79.58V79.328C31.3806 78.872 31.2366 78.506 30.9486 78.23C30.6726 77.942 30.2406 77.798 29.6526 77.798H27.7446V75.854H29.6526C30.2166 75.854 30.6306 75.722 30.8946 75.458C31.1586 75.182 31.2906 74.828 31.2906 74.396V74.144C31.2906 73.592 31.1346 73.196 30.8226 72.956C30.5226 72.704 30.0786 72.578 29.4906 72.578C29.0706 72.578 28.6446 72.638 28.2126 72.758C27.7926 72.866 27.2826 73.034 26.6826 73.262L26.0166 71.408C26.6886 71.096 27.3126 70.88 27.8886 70.76C28.4646 70.64 29.0226 70.58 29.5626 70.58C30.4866 70.58 31.2306 70.736 31.7946 71.048C32.3586 71.36 32.7666 71.78 33.0186 72.308C33.2826 72.836 33.4146 73.418 33.4146 74.054V74.306C33.4146 74.87 33.2706 75.368 32.9826 75.8C32.7066 76.22 32.3406 76.556 31.8846 76.808C32.3766 77.072 32.7666 77.426 33.0546 77.87C33.3546 78.302 33.5046 78.818 33.5046 79.418V79.67ZM37.4821 76.016H35.3041V73.874H37.4821V76.016ZM37.4821 83H35.3041V80.858H37.4821V83Z" fill="black"/>
<path d="M19.1418 57.18V55.11C20.1138 55.11 20.8158 54.93 21.2478 54.57C21.6918 54.198 21.9138 53.544 21.9138 52.608V44.76H24.0738V52.608C24.0738 53.544 23.9298 54.354 23.6418 55.038C23.3538 55.722 22.8498 56.25 22.1298 56.622C21.4218 56.994 20.4258 57.18 19.1418 57.18ZM33.5774 57H26.1614V55.29C26.1614 54.426 26.2754 53.706 26.5034 53.13C26.7314 52.542 27.0374 52.062 27.4214 51.69C27.8054 51.306 28.2254 51 28.6814 50.772L29.9054 50.16C30.3734 49.92 30.7514 49.668 31.0394 49.404C31.3394 49.128 31.4894 48.774 31.4894 48.342V48.018C31.4894 47.574 31.3334 47.226 31.0214 46.974C30.7214 46.71 30.2354 46.578 29.5634 46.578C29.1554 46.578 28.7414 46.638 28.3214 46.758C27.9134 46.878 27.4154 47.046 26.8274 47.262L26.1614 45.408C26.8334 45.108 27.4454 44.898 27.9974 44.778C28.5614 44.646 29.1074 44.58 29.6354 44.58C30.6074 44.58 31.3814 44.736 31.9574 45.048C32.5454 45.36 32.9654 45.78 33.2174 46.308C33.4814 46.824 33.6134 47.394 33.6134 48.018V48.342C33.6134 48.99 33.4814 49.542 33.2174 49.998C32.9654 50.454 32.6294 50.838 32.2094 51.15C31.7894 51.462 31.3334 51.738 30.8414 51.978L29.6174 52.59C29.1734 52.806 28.8434 53.106 28.6274 53.49C28.4234 53.874 28.3094 54.366 28.2854 54.966H33.5774V57ZM37.5173 50.016H35.3393V47.874H37.5173V50.016ZM37.5173 57H35.3393V54.858H37.5173V57Z" fill="black"/>
<path d="M20.2932 31.18V29.11C21.2652 29.11 21.9672 28.93 22.3992 28.57C22.8432 28.198 23.0652 27.544 23.0652 26.608V18.76H25.2252V26.608C25.2252 27.544 25.0812 28.354 24.7932 29.038C24.5052 29.722 24.0012 30.25 23.2812 30.622C22.5732 30.994 21.5772 31.18 20.2932 31.18ZM26.7728 20.506L29.8868 18.76H31.6868V31H29.5628V21.136L27.7268 22.144L26.7728 20.506ZM36.3659 24.016H34.1879V21.874H36.3659V24.016ZM36.3659 31H34.1879V28.858H36.3659V31Z" fill="black"/>
<path d="M131.136 158.93V161H124.044V148.76H130.956V150.83H126.204V153.764H130.416V155.834H126.204V158.93H131.136ZM139.527 161L136.971 156.518L134.541 161H132.273L135.855 154.646L132.471 148.76H134.919L137.277 152.864L139.491 148.76H141.759L138.393 154.754L141.975 161H139.527ZM145.239 154.016H143.061V151.874H145.239V154.016ZM145.239 161H143.061V158.858H145.239V161Z" fill="black"/>
<path d="M131.565 132.93V135H124.473V122.76H131.385V124.83H126.633V127.764H130.845V129.834H126.633V132.93H131.565ZM142.169 122.76L138.425 130.086V135H136.265V130.122L132.485 122.76H134.789L137.435 127.98L139.937 122.76H142.169ZM145.21 128.016H143.032V125.874H145.21V128.016ZM145.21 135H143.032V132.858H145.21V135Z" fill="black"/>
<path d="M132.181 106.93V109H125.089V96.76H132.001V98.83H127.249V101.764H131.461V103.834H127.249V106.93H132.181ZM141.562 106.93V109H133.732V107.11L138.844 98.83H133.912V96.76H141.382V98.65L136.27 106.93H141.562ZM145.194 102.016H143.016V99.874H145.194V102.016ZM145.194 109H143.016V106.858H145.194V109Z" fill="black"/>
<path d="M141.559 80.93V83H133.729V81.11L138.841 72.83H133.909V70.76H141.379V72.65L136.267 80.93H141.559ZM145.191 76.016H143.013V73.874H145.191V76.016ZM145.191 83H143.013V80.858H145.191V83Z" fill="black"/>
<path d="M142.15 44.76L138.406 52.086V57H136.246V52.122L132.466 44.76H134.77L137.416 49.98L139.918 44.76H142.15ZM145.191 50.016H143.013V47.874H145.191V50.016ZM145.191 57H143.013V54.858H145.191V57Z" fill="black"/>
<path d="M139.479 31L136.923 26.518L134.493 31H132.225L135.807 24.646L132.423 18.76H134.871L137.229 22.864L139.443 18.76H141.711L138.345 24.754L141.927 31H139.479ZM145.191 24.016H143.013V21.874H145.191V24.016ZM145.191 31H143.013V28.858H145.191V31Z" fill="black"/>
</svg>
