<svg width="271" height="75" viewBox="0 0 271 75" fill="none" xmlns="http://www.w3.org/2000/svg">
<rect width="271" height="75" fill="#D9D9D9"/>
<path d="M17.066 9.94C17.618 9.94 17.99 10.03 18.182 10.21C18.374 10.39 18.47 10.75 18.47 11.29V18.094C18.47 19.486 18.128 20.536 17.444 21.244C16.76 21.94 15.752 22.288 14.42 22.288C13.772 22.288 13.172 22.204 12.62 22.036C12.068 21.868 11.594 21.622 11.198 21.298L12.098 19.156C12.326 19.336 12.62 19.486 12.98 19.606C13.352 19.726 13.706 19.786 14.042 19.786C14.654 19.786 15.092 19.654 15.356 19.39C15.632 19.114 15.77 18.682 15.77 18.094V12.316H12.638V9.94H17.066ZM25.3348 22.27C24.3508 22.27 23.4868 22.06 22.7428 21.64C21.9988 21.208 21.4228 20.632 21.0148 19.912C20.6188 19.18 20.4208 18.364 20.4208 17.464C20.4208 16.504 20.6368 15.664 21.0688 14.944C21.5008 14.212 22.0888 13.648 22.8328 13.252C23.5768 12.856 24.4108 12.658 25.3348 12.658C26.3188 12.658 27.1828 12.874 27.9268 13.306C28.6708 13.726 29.2408 14.302 29.6367 15.034C30.0448 15.754 30.2488 16.564 30.2488 17.464C30.2488 18.424 30.0328 19.27 29.6008 20.002C29.1688 20.722 28.5808 21.28 27.8368 21.676C27.0928 22.072 26.2588 22.27 25.3348 22.27ZM25.3348 20.056C26.0068 20.056 26.5588 19.816 26.9908 19.336C27.4348 18.856 27.6568 18.232 27.6568 17.464C27.6568 16.696 27.4348 16.072 26.9908 15.592C26.5588 15.112 26.0068 14.872 25.3348 14.872C24.6628 14.872 24.1048 15.112 23.6608 15.592C23.2288 16.072 23.0128 16.696 23.0128 17.464C23.0128 18.232 23.2288 18.856 23.6608 19.336C24.1048 19.816 24.6628 20.056 25.3348 20.056ZM38.8352 20.452C38.5112 20.956 38.0912 21.346 37.5752 21.622C37.0712 21.886 36.5072 22.018 35.8832 22.018C35.0432 22.018 34.2992 21.814 33.6512 21.406C33.0152 20.986 32.5232 20.422 32.1752 19.714C31.8272 19.006 31.6532 18.214 31.6532 17.338C31.6532 16.414 31.8392 15.598 32.2112 14.89C32.5832 14.17 33.0812 13.618 33.7052 13.234C34.3412 12.85 35.0552 12.658 35.8472 12.658C36.4472 12.658 36.9992 12.784 37.5032 13.036C38.0192 13.288 38.4512 13.648 38.7992 14.116V12.91H41.2652V20.956C41.2652 22.612 40.8152 23.848 39.9152 24.664C39.0272 25.492 37.6832 25.906 35.8832 25.906C35.2472 25.906 34.6172 25.816 33.9932 25.636C33.3812 25.456 32.8952 25.228 32.5352 24.952L33.2192 23.044C33.5912 23.272 34.0052 23.446 34.4612 23.566C34.9292 23.698 35.3852 23.764 35.8292 23.764C36.8492 23.764 37.6052 23.536 38.0972 23.08C38.5892 22.636 38.8352 21.946 38.8352 21.01V20.452ZM36.5312 19.822C37.2032 19.822 37.7552 19.588 38.1872 19.12C38.6312 18.652 38.8532 18.058 38.8532 17.338C38.8532 16.606 38.6312 16.006 38.1872 15.538C37.7552 15.058 37.2032 14.818 36.5312 14.818C35.8592 14.818 35.3072 15.058 34.8752 15.538C34.4552 16.006 34.2452 16.606 34.2452 17.338C34.2452 18.07 34.4552 18.67 34.8752 19.138C35.3072 19.594 35.8592 19.822 36.5312 19.822ZM51.346 22.27C50.602 22.27 49.87 22.18 49.15 22C48.43 21.808 47.848 21.562 47.404 21.262L48.07 19.354C48.43 19.606 48.928 19.822 49.564 20.002C50.2 20.17 50.782 20.254 51.31 20.254C51.778 20.254 52.138 20.182 52.39 20.038C52.642 19.894 52.768 19.684 52.768 19.408C52.768 19 52.414 18.73 51.706 18.598L50.446 18.382C48.49 18.046 47.512 17.116 47.512 15.592C47.512 14.692 47.854 13.978 48.538 13.45C49.222 12.922 50.146 12.658 51.31 12.658C52.03 12.658 52.696 12.748 53.308 12.928C53.92 13.096 54.442 13.336 54.874 13.648L54.154 15.394C53.746 15.166 53.296 14.992 52.804 14.872C52.312 14.74 51.838 14.674 51.382 14.674C50.938 14.674 50.596 14.74 50.356 14.872C50.116 14.992 49.996 15.172 49.996 15.412C49.996 15.772 50.308 16.006 50.932 16.114L52.066 16.33C53.182 16.534 53.992 16.864 54.496 17.32C55 17.776 55.252 18.406 55.252 19.21C55.252 20.17 54.904 20.92 54.208 21.46C53.524 22 52.57 22.27 51.346 22.27ZM57.203 25.636V12.91H59.669V14.134C60.005 13.666 60.425 13.306 60.929 13.054C61.445 12.79 62.015 12.658 62.639 12.658C63.467 12.658 64.199 12.868 64.835 13.288C65.471 13.708 65.957 14.284 66.293 15.016C66.641 15.736 66.815 16.552 66.815 17.464C66.815 18.424 66.629 19.27 66.257 20.002C65.897 20.734 65.399 21.298 64.763 21.694C64.139 22.078 63.431 22.27 62.639 22.27C62.015 22.27 61.451 22.15 60.947 21.91C60.455 21.658 60.053 21.292 59.741 20.812V25.636H57.203ZM61.955 20.056C62.627 20.056 63.173 19.816 63.593 19.336C64.013 18.856 64.223 18.232 64.223 17.464C64.223 16.696 64.013 16.072 63.593 15.592C63.173 15.112 62.627 14.872 61.955 14.872C61.259 14.872 60.695 15.112 60.263 15.592C59.831 16.072 59.615 16.696 59.615 17.464C59.615 18.232 59.831 18.856 60.263 19.336C60.695 19.816 61.259 20.056 61.955 20.056ZM76.8557 21.244C76.4597 21.568 75.9437 21.82 75.3077 22C74.6837 22.18 73.9997 22.27 73.2557 22.27C71.6837 22.27 70.4477 21.844 69.5477 20.992C68.6597 20.128 68.2157 18.952 68.2157 17.464C68.2157 16.492 68.4137 15.646 68.8097 14.926C69.2177 14.194 69.7637 13.636 70.4477 13.252C71.1437 12.856 71.9297 12.658 72.8057 12.658C74.0777 12.658 75.0797 13.054 75.8117 13.846C76.5557 14.626 76.9277 15.694 76.9277 17.05V18.13H70.7537C70.8617 18.802 71.1377 19.318 71.5817 19.678C72.0257 20.038 72.6077 20.218 73.3277 20.218C73.8077 20.218 74.2997 20.146 74.8037 20.002C75.3197 19.858 75.7397 19.678 76.0637 19.462L76.8557 21.244ZM72.7517 14.638C72.2117 14.638 71.7677 14.8 71.4197 15.124C71.0717 15.436 70.8557 15.886 70.7717 16.474H74.5877C74.5517 15.886 74.3717 15.436 74.0477 15.124C73.7357 14.8 73.3037 14.638 72.7517 14.638ZM86.9631 21.244C86.5671 21.568 86.0511 21.82 85.4151 22C84.7911 22.18 84.1071 22.27 83.3631 22.27C81.7911 22.27 80.5551 21.844 79.6551 20.992C78.7671 20.128 78.3231 18.952 78.3231 17.464C78.3231 16.492 78.5211 15.646 78.9171 14.926C79.3251 14.194 79.8711 13.636 80.5551 13.252C81.2511 12.856 82.0371 12.658 82.9131 12.658C84.1851 12.658 85.1871 13.054 85.9191 13.846C86.6631 14.626 87.0351 15.694 87.0351 17.05V18.13H80.8611C80.9691 18.802 81.2451 19.318 81.6891 19.678C82.1331 20.038 82.7151 20.218 83.4351 20.218C83.9151 20.218 84.4071 20.146 84.9111 20.002C85.4271 19.858 85.8471 19.678 86.1711 19.462L86.9631 21.244ZM82.8591 14.638C82.3191 14.638 81.8751 14.8 81.5271 15.124C81.1791 15.436 80.9631 15.886 80.8791 16.474H84.6951C84.6591 15.886 84.4791 15.436 84.1551 15.124C83.8431 14.8 83.4111 14.638 82.8591 14.638ZM95.5765 22V20.794C95.3365 21.106 95.0605 21.376 94.7485 21.604C94.4365 21.82 94.1005 21.982 93.7405 22.09C93.3805 22.21 93.0025 22.27 92.6065 22.27C91.7785 22.27 91.0465 22.06 90.4105 21.64C89.7745 21.22 89.2825 20.65 88.9345 19.93C88.5985 19.198 88.4305 18.376 88.4305 17.464C88.4305 16.504 88.6105 15.658 88.9705 14.926C89.3425 14.194 89.8405 13.636 90.4645 13.252C91.1005 12.856 91.8145 12.658 92.6065 12.658C93.2185 12.658 93.7705 12.784 94.2625 13.036C94.7665 13.276 95.1805 13.636 95.5045 14.116V9.058H98.0425V22H95.5765ZM93.2905 20.056C93.9865 20.056 94.5505 19.816 94.9825 19.336C95.4145 18.856 95.6305 18.232 95.6305 17.464C95.6305 16.696 95.4145 16.072 94.9825 15.592C94.5505 15.112 93.9865 14.872 93.2905 14.872C92.6185 14.872 92.0725 15.112 91.6525 15.592C91.2325 16.072 91.0225 16.696 91.0225 17.464C91.0225 18.232 91.2325 18.856 91.6525 19.336C92.0725 19.816 92.6185 20.056 93.2905 20.056ZM101.585 22.216C101.141 22.216 100.775 22.084 100.487 21.82C100.199 21.544 100.055 21.196 100.055 20.776C100.055 20.356 100.199 20.014 100.487 19.75C100.775 19.474 101.141 19.336 101.585 19.336C102.029 19.336 102.395 19.474 102.683 19.75C102.971 20.014 103.115 20.356 103.115 20.776C103.115 21.196 102.971 21.544 102.683 21.82C102.395 22.084 102.029 22.216 101.585 22.216ZM101.585 16.636C101.141 16.636 100.775 16.504 100.487 16.24C100.199 15.964 100.055 15.616 100.055 15.196C100.055 14.776 100.199 14.434 100.487 14.17C100.775 13.894 101.141 13.756 101.585 13.756C102.029 13.756 102.395 13.894 102.683 14.17C102.971 14.434 103.115 14.776 103.115 15.196C103.115 15.616 102.971 15.964 102.683 16.24C102.395 16.504 102.029 16.636 101.585 16.636Z" fill="black"/>
</svg>
