<svg width="271" height="75" viewBox="0 0 271 75" fill="none" xmlns="http://www.w3.org/2000/svg">
<rect width="271" height="75" fill="#D9D9D9"/>
<path d="M17.066 9.94C17.618 9.94 17.99 10.03 18.182 10.21C18.374 10.39 18.47 10.75 18.47 11.29V18.094C18.47 19.486 18.128 20.536 17.444 21.244C16.76 21.94 15.752 22.288 14.42 22.288C13.772 22.288 13.172 22.204 12.62 22.036C12.068 21.868 11.594 21.622 11.198 21.298L12.098 19.156C12.326 19.336 12.62 19.486 12.98 19.606C13.352 19.726 13.706 19.786 14.042 19.786C14.654 19.786 15.092 19.654 15.356 19.39C15.632 19.114 15.77 18.682 15.77 18.094V12.316H12.638V9.94H17.066ZM25.3348 22.27C24.3508 22.27 23.4868 22.06 22.7428 21.64C21.9988 21.208 21.4228 20.632 21.0148 19.912C20.6188 19.18 20.4208 18.364 20.4208 17.464C20.4208 16.504 20.6368 15.664 21.0688 14.944C21.5008 14.212 22.0888 13.648 22.8328 13.252C23.5768 12.856 24.4108 12.658 25.3348 12.658C26.3188 12.658 27.1828 12.874 27.9268 13.306C28.6708 13.726 29.2408 14.302 29.6367 15.034C30.0448 15.754 30.2488 16.564 30.2488 17.464C30.2488 18.424 30.0328 19.27 29.6008 20.002C29.1688 20.722 28.5808 21.28 27.8368 21.676C27.0928 22.072 26.2588 22.27 25.3348 22.27ZM25.3348 20.056C26.0068 20.056 26.5588 19.816 26.9908 19.336C27.4348 18.856 27.6568 18.232 27.6568 17.464C27.6568 16.696 27.4348 16.072 26.9908 15.592C26.5588 15.112 26.0068 14.872 25.3348 14.872C24.6628 14.872 24.1048 15.112 23.6608 15.592C23.2288 16.072 23.0128 16.696 23.0128 17.464C23.0128 18.232 23.2288 18.856 23.6608 19.336C24.1048 19.816 24.6628 20.056 25.3348 20.056ZM38.8352 20.452C38.5112 20.956 38.0912 21.346 37.5752 21.622C37.0712 21.886 36.5072 22.018 35.8832 22.018C35.0432 22.018 34.2992 21.814 33.6512 21.406C33.0152 20.986 32.5232 20.422 32.1752 19.714C31.8272 19.006 31.6532 18.214 31.6532 17.338C31.6532 16.414 31.8392 15.598 32.2112 14.89C32.5832 14.17 33.0812 13.618 33.7052 13.234C34.3412 12.85 35.0552 12.658 35.8472 12.658C36.4472 12.658 36.9992 12.784 37.5032 13.036C38.0192 13.288 38.4512 13.648 38.7992 14.116V12.91H41.2652V20.956C41.2652 22.612 40.8152 23.848 39.9152 24.664C39.0272 25.492 37.6832 25.906 35.8832 25.906C35.2472 25.906 34.6172 25.816 33.9932 25.636C33.3812 25.456 32.8952 25.228 32.5352 24.952L33.2192 23.044C33.5912 23.272 34.0052 23.446 34.4612 23.566C34.9292 23.698 35.3852 23.764 35.8292 23.764C36.8492 23.764 37.6052 23.536 38.0972 23.08C38.5892 22.636 38.8352 21.946 38.8352 21.01V20.452ZM36.5312 19.822C37.2032 19.822 37.7552 19.588 38.1872 19.12C38.6312 18.652 38.8532 18.058 38.8532 17.338C38.8532 16.606 38.6312 16.006 38.1872 15.538C37.7552 15.058 37.2032 14.818 36.5312 14.818C35.8592 14.818 35.3072 15.058 34.8752 15.538C34.4552 16.006 34.2452 16.606 34.2452 17.338C34.2452 18.07 34.4552 18.67 34.8752 19.138C35.3072 19.594 35.8592 19.822 36.5312 19.822ZM54.946 22C54.502 22 54.154 21.916 53.902 21.748C53.662 21.58 53.506 21.31 53.434 20.938C53.146 21.37 52.744 21.7 52.228 21.928C51.724 22.156 51.148 22.27 50.5 22.27C49.528 22.27 48.76 22.018 48.196 21.514C47.632 20.998 47.35 20.302 47.35 19.426C47.35 18.442 47.71 17.68 48.43 17.14C49.15 16.588 50.17 16.312 51.49 16.312H52.948C52.912 15.724 52.732 15.298 52.408 15.034C52.096 14.77 51.61 14.638 50.95 14.638C50.122 14.638 49.324 14.872 48.556 15.34L47.836 13.666C48.256 13.354 48.766 13.108 49.366 12.928C49.978 12.748 50.62 12.658 51.292 12.658C52.612 12.658 53.638 13 54.37 13.684C55.102 14.356 55.468 15.298 55.468 16.51V19.93H56.566V22H54.946ZM49.762 19.138C49.762 19.522 49.882 19.822 50.122 20.038C50.374 20.242 50.722 20.344 51.166 20.344C51.706 20.344 52.138 20.176 52.462 19.84C52.798 19.504 52.966 19.054 52.966 18.49V17.95H51.688C51.016 17.95 50.524 18.046 50.212 18.238C49.912 18.43 49.762 18.73 49.762 19.138ZM62.528 22.27C61.064 22.27 59.894 21.844 59.018 20.992C58.142 20.128 57.704 18.976 57.704 17.536C57.704 16.552 57.914 15.688 58.334 14.944C58.754 14.2 59.33 13.636 60.062 13.252C60.794 12.856 61.628 12.658 62.564 12.658C63.968 12.658 65.12 13.108 66.02 14.008L64.886 15.718C64.298 15.142 63.572 14.854 62.708 14.854C61.976 14.854 61.388 15.094 60.944 15.574C60.512 16.042 60.296 16.672 60.296 17.464C60.296 18.244 60.512 18.874 60.944 19.354C61.388 19.822 61.97 20.056 62.69 20.056C63.122 20.056 63.554 19.978 63.986 19.822C64.418 19.666 64.766 19.468 65.03 19.228L66.038 21.046C65.618 21.418 65.09 21.718 64.454 21.946C63.83 22.162 63.188 22.27 62.528 22.27ZM71.6686 22.27C70.2046 22.27 69.0346 21.844 68.1586 20.992C67.2826 20.128 66.8446 18.976 66.8446 17.536C66.8446 16.552 67.0546 15.688 67.4746 14.944C67.8946 14.2 68.4706 13.636 69.2026 13.252C69.9346 12.856 70.7686 12.658 71.7046 12.658C73.1086 12.658 74.2606 13.108 75.1606 14.008L74.0266 15.718C73.4386 15.142 72.7126 14.854 71.8486 14.854C71.1166 14.854 70.5286 15.094 70.0846 15.574C69.6526 16.042 69.4366 16.672 69.4366 17.464C69.4366 18.244 69.6526 18.874 70.0846 19.354C70.5286 19.822 71.1106 20.056 71.8306 20.056C72.2626 20.056 72.6946 19.978 73.1266 19.822C73.5586 19.666 73.9066 19.468 74.1706 19.228L75.1786 21.046C74.7586 21.418 74.2306 21.718 73.5946 21.946C72.9706 22.162 72.3286 22.27 71.6686 22.27ZM84.6252 21.244C84.2292 21.568 83.7132 21.82 83.0772 22C82.4532 22.18 81.7692 22.27 81.0252 22.27C79.4532 22.27 78.2172 21.844 77.3172 20.992C76.4292 20.128 75.9852 18.952 75.9852 17.464C75.9852 16.492 76.1832 15.646 76.5792 14.926C76.9872 14.194 77.5332 13.636 78.2172 13.252C78.9132 12.856 79.6992 12.658 80.5752 12.658C81.8472 12.658 82.8492 13.054 83.5812 13.846C84.3252 14.626 84.6972 15.694 84.6972 17.05V18.13H78.5232C78.6312 18.802 78.9072 19.318 79.3512 19.678C79.7952 20.038 80.3772 20.218 81.0972 20.218C81.5772 20.218 82.0692 20.146 82.5732 20.002C83.0892 19.858 83.5092 19.678 83.8332 19.462L84.6252 21.244ZM80.5212 14.638C79.9812 14.638 79.5372 14.8 79.1892 15.124C78.8412 15.436 78.6252 15.886 78.5412 16.474H82.3572C82.3212 15.886 82.1412 15.436 81.8172 15.124C81.5052 14.8 81.0732 14.638 80.5212 14.638ZM86.4706 22V9.058H89.0086V22H86.4706ZM99.426 21.244C99.03 21.568 98.514 21.82 97.878 22C97.254 22.18 96.57 22.27 95.826 22.27C94.254 22.27 93.018 21.844 92.118 20.992C91.23 20.128 90.786 18.952 90.786 17.464C90.786 16.492 90.984 15.646 91.38 14.926C91.788 14.194 92.334 13.636 93.018 13.252C93.714 12.856 94.5 12.658 95.376 12.658C96.648 12.658 97.65 13.054 98.382 13.846C99.126 14.626 99.498 15.694 99.498 17.05V18.13H93.324C93.432 18.802 93.708 19.318 94.152 19.678C94.596 20.038 95.178 20.218 95.898 20.218C96.378 20.218 96.87 20.146 97.374 20.002C97.89 19.858 98.31 19.678 98.634 19.462L99.426 21.244ZM95.322 14.638C94.782 14.638 94.338 14.8 93.99 15.124C93.642 15.436 93.426 15.886 93.342 16.474H97.158C97.122 15.886 96.942 15.436 96.618 15.124C96.306 14.8 95.874 14.638 95.322 14.638ZM107.121 15.232C106.869 15.16 106.533 15.124 106.113 15.124C105.381 15.124 104.811 15.34 104.403 15.772C104.007 16.204 103.809 16.804 103.809 17.572V22H101.271V12.91H103.593V14.53C103.845 13.966 104.199 13.534 104.655 13.234C105.123 12.922 105.657 12.766 106.257 12.766C106.581 12.766 106.869 12.814 107.121 12.91V15.232ZM115.837 22C115.393 22 115.045 21.916 114.793 21.748C114.553 21.58 114.397 21.31 114.325 20.938C114.037 21.37 113.635 21.7 113.119 21.928C112.615 22.156 112.039 22.27 111.391 22.27C110.419 22.27 109.651 22.018 109.087 21.514C108.523 20.998 108.241 20.302 108.241 19.426C108.241 18.442 108.601 17.68 109.321 17.14C110.041 16.588 111.061 16.312 112.381 16.312H113.839C113.803 15.724 113.623 15.298 113.299 15.034C112.987 14.77 112.501 14.638 111.841 14.638C111.013 14.638 110.215 14.872 109.447 15.34L108.727 13.666C109.147 13.354 109.657 13.108 110.257 12.928C110.869 12.748 111.511 12.658 112.183 12.658C113.503 12.658 114.529 13 115.261 13.684C115.993 14.356 116.359 15.298 116.359 16.51V19.93H117.457V22H115.837ZM110.653 19.138C110.653 19.522 110.773 19.822 111.013 20.038C111.265 20.242 111.613 20.344 112.057 20.344C112.597 20.344 113.029 20.176 113.353 19.84C113.689 19.504 113.857 19.054 113.857 18.49V17.95H112.579C111.907 17.95 111.415 18.046 111.103 18.238C110.803 18.43 110.653 18.73 110.653 19.138ZM122.919 22.27C121.851 22.27 121.041 21.982 120.489 21.406C119.937 20.818 119.661 19.96 119.661 18.832V14.98H118.167V12.91H119.085C119.361 12.91 119.559 12.856 119.679 12.748C119.799 12.628 119.859 12.43 119.859 12.154V10.642H122.199V12.91H124.845V14.98H122.199V18.526C122.199 19.09 122.295 19.498 122.487 19.75C122.691 20.002 123.021 20.128 123.477 20.128C123.945 20.128 124.407 20.026 124.863 19.822L125.277 21.712C125.001 21.892 124.653 22.03 124.233 22.126C123.825 22.222 123.387 22.27 122.919 22.27ZM127.374 22V14.98H126.06V12.91H128.508C128.988 12.91 129.342 13.024 129.57 13.252C129.798 13.48 129.912 13.834 129.912 14.314V22H127.374ZM128.418 11.92C127.962 11.92 127.59 11.782 127.302 11.506C127.014 11.23 126.87 10.882 126.87 10.462C126.87 10.042 127.014 9.694 127.302 9.418C127.59 9.142 127.962 9.004 128.418 9.004C128.874 9.004 129.246 9.142 129.534 9.418C129.822 9.694 129.966 10.042 129.966 10.462C129.966 10.882 129.822 11.23 129.534 11.506C129.246 11.782 128.874 11.92 128.418 11.92ZM136.587 22.27C135.603 22.27 134.739 22.06 133.995 21.64C133.251 21.208 132.675 20.632 132.267 19.912C131.871 19.18 131.673 18.364 131.673 17.464C131.673 16.504 131.889 15.664 132.321 14.944C132.753 14.212 133.341 13.648 134.085 13.252C134.829 12.856 135.663 12.658 136.587 12.658C137.571 12.658 138.435 12.874 139.179 13.306C139.923 13.726 140.493 14.302 140.889 15.034C141.297 15.754 141.501 16.564 141.501 17.464C141.501 18.424 141.285 19.27 140.853 20.002C140.421 20.722 139.833 21.28 139.089 21.676C138.345 22.072 137.511 22.27 136.587 22.27ZM136.587 20.056C137.259 20.056 137.811 19.816 138.243 19.336C138.687 18.856 138.909 18.232 138.909 17.464C138.909 16.696 138.687 16.072 138.243 15.592C137.811 15.112 137.259 14.872 136.587 14.872C135.915 14.872 135.357 15.112 134.913 15.592C134.481 16.072 134.265 16.696 134.265 17.464C134.265 18.232 134.481 18.856 134.913 19.336C135.357 19.816 135.915 20.056 136.587 20.056ZM149.313 22V16.726C149.313 15.478 148.767 14.854 147.675 14.854C147.087 14.854 146.631 15.052 146.307 15.448C145.983 15.844 145.821 16.414 145.821 17.158V22H143.283V12.91H145.605V14.188C145.905 13.684 146.295 13.306 146.775 13.054C147.267 12.79 147.819 12.658 148.431 12.658C149.499 12.658 150.333 13.006 150.933 13.702C151.545 14.386 151.851 15.34 151.851 16.564V22H149.313ZM155.339 22.216C154.895 22.216 154.529 22.084 154.241 21.82C153.953 21.544 153.809 21.196 153.809 20.776C153.809 20.356 153.953 20.014 154.241 19.75C154.529 19.474 154.895 19.336 155.339 19.336C155.783 19.336 156.149 19.474 156.437 19.75C156.725 20.014 156.869 20.356 156.869 20.776C156.869 21.196 156.725 21.544 156.437 21.82C156.149 22.084 155.783 22.216 155.339 22.216ZM155.339 16.636C154.895 16.636 154.529 16.504 154.241 16.24C153.953 15.964 153.809 15.616 153.809 15.196C153.809 14.776 153.953 14.434 154.241 14.17C154.529 13.894 154.895 13.756 155.339 13.756C155.783 13.756 156.149 13.894 156.437 14.17C156.725 14.434 156.869 14.776 156.869 15.196C156.869 15.616 156.725 15.964 156.437 16.24C156.149 16.504 155.783 16.636 155.339 16.636Z" fill="black"/>
</svg>
