<svg width="100" height="100" viewBox="0 0 100 100" fill="none" xmlns="http://www.w3.org/2000/svg">
<circle cx="50" cy="50" r="48" fill="#B2ABAB" stroke="#BA0000" stroke-width="4"/>
<path d="M20.158 58V44.6H29.338V46.8H22.618V50.04H28.518V52.22H22.618V55.8H29.538V58H20.158ZM38.7293 58V52.12C38.7293 51.32 38.5493 50.72 38.1893 50.32C37.8426 49.9067 37.3226 49.7 36.6293 49.7C35.8826 49.7 35.296 49.9467 34.8693 50.44C34.4426 50.9333 34.2293 51.6267 34.2293 52.52V58H31.8893V47.92H34.0493V49.38C34.3693 48.82 34.8026 48.3933 35.3493 48.1C35.9093 47.7933 36.5493 47.64 37.2693 47.64C38.4693 47.64 39.4026 48.0267 40.0693 48.8C40.736 49.56 41.0693 50.62 41.0693 51.98V58H38.7293ZM51.5052 58C51.0386 58 50.6719 57.9067 50.4052 57.72C50.1519 57.5333 49.9986 57.2333 49.9452 56.82C49.6252 57.3 49.1852 57.6667 48.6252 57.92C48.0652 58.16 47.4186 58.28 46.6852 58.28C45.5919 58.28 44.7319 58 44.1052 57.44C43.4919 56.88 43.1852 56.12 43.1852 55.16C43.1852 54.08 43.5786 53.24 44.3652 52.64C45.1652 52.04 46.2786 51.74 47.7052 51.74H49.5852C49.5452 50.98 49.3252 50.42 48.9252 50.06C48.5386 49.7 47.9452 49.52 47.1452 49.52C46.1719 49.52 45.2586 49.7867 44.4052 50.32L43.7252 48.76C44.1652 48.4133 44.7119 48.14 45.3652 47.94C46.0319 47.74 46.7186 47.64 47.4252 47.64C48.8386 47.64 49.9386 48.0133 50.7252 48.76C51.5119 49.5067 51.9052 50.5467 51.9052 51.88V56.06H53.1852V58H51.5052ZM45.4252 54.92C45.4252 55.4 45.5852 55.7733 45.9052 56.04C46.2252 56.3067 46.6786 56.44 47.2652 56.44C47.9586 56.44 48.5186 56.24 48.9452 55.84C49.3719 55.4267 49.5852 54.8867 49.5852 54.22V53.44H47.8852C47.0186 53.44 46.3919 53.56 46.0052 53.8C45.6186 54.04 45.4252 54.4133 45.4252 54.92ZM55.0729 58V43.62H57.4129V49.46C57.7729 48.8867 58.2462 48.44 58.8329 48.12C59.4329 47.8 60.0929 47.64 60.8129 47.64C61.7329 47.64 62.5462 47.8733 63.2529 48.34C63.9729 48.8067 64.5196 49.4467 64.8929 50.26C65.2796 51.06 65.4729 51.9667 65.4729 52.98C65.4729 54.0333 65.2662 54.9667 64.8529 55.78C64.4396 56.58 63.8796 57.2 63.1729 57.64C62.4796 58.0667 61.6929 58.28 60.8129 58.28C60.0796 58.28 59.4129 58.1267 58.8129 57.82C58.2129 57.5 57.7262 57.0467 57.3529 56.46V58H55.0729ZM60.2529 56.22C61.0796 56.22 61.7596 55.92 62.2929 55.32C62.8262 54.7067 63.0929 53.9267 63.0929 52.98C63.0929 52.0333 62.8262 51.2533 62.2929 50.64C61.7596 50.0133 61.0796 49.7 60.2529 49.7C59.3862 49.7 58.6729 50.0067 58.1129 50.62C57.5662 51.2333 57.2929 52.02 57.2929 52.98C57.2929 53.9267 57.5662 54.7067 58.1129 55.32C58.6729 55.92 59.3862 56.22 60.2529 56.22ZM67.6901 58V43.62H70.0301V58H67.6901ZM81.5891 57.16C81.1625 57.52 80.6091 57.8 79.9291 58C79.2491 58.1867 78.5025 58.28 77.6891 58.28C75.9958 58.28 74.6625 57.8067 73.6891 56.86C72.7158 55.9133 72.2291 54.6133 72.2291 52.96C72.2291 51.8933 72.4491 50.96 72.8891 50.16C73.3291 49.3467 73.9225 48.7267 74.6691 48.3C75.4291 47.86 76.2825 47.64 77.2291 47.64C78.6025 47.64 79.6891 48.08 80.4891 48.96C81.2891 49.84 81.6891 51.0267 81.6891 52.52V53.64H74.5891C74.6825 54.5067 75.0025 55.18 75.5491 55.66C76.0958 56.1267 76.8225 56.36 77.7291 56.36C78.2891 56.36 78.8558 56.28 79.4291 56.12C80.0025 55.96 80.4758 55.7467 80.8491 55.48L81.5891 57.16ZM77.1691 49.52C76.4758 49.52 75.9025 49.7333 75.4491 50.16C74.9958 50.5867 74.7158 51.1733 74.6091 51.92H79.4691C79.4291 51.16 79.2091 50.5733 78.8091 50.16C78.4091 49.7333 77.8625 49.52 77.1691 49.52Z" fill="white"/>
</svg>
