<svg width="86" height="44" viewBox="0 0 86 44" fill="none" xmlns="http://www.w3.org/2000/svg">
<rect x="1" y="1" width="84" height="42" rx="4" fill="white"/>
<rect x="1" y="1" width="84" height="42" rx="4" stroke="black" stroke-width="2" stroke-linejoin="round"/>
<path d="M28.452 25.6L25.94 21.296V28H23.684V17.28H26.036L29.396 23.072L32.724 17.28H35.076V28H32.788V21.312L30.308 25.6H28.452ZM41.2576 28.24C40.383 28.24 39.615 28.0533 38.9536 27.68C38.2923 27.296 37.7803 26.784 37.4176 26.144C37.0656 25.4933 36.8896 24.768 36.8896 23.968C36.8896 23.1147 37.0816 22.368 37.4656 21.728C37.8496 21.0773 38.3723 20.576 39.0336 20.224C39.695 19.872 40.4363 19.696 41.2576 19.696C42.1323 19.696 42.9003 19.888 43.5616 20.272C44.223 20.6453 44.7296 21.1573 45.0816 21.808C45.4443 22.448 45.6256 23.168 45.6256 23.968C45.6256 24.8213 45.4336 25.5733 45.0496 26.224C44.6656 26.864 44.143 27.36 43.4816 27.712C42.8203 28.064 42.079 28.24 41.2576 28.24ZM41.2576 26.272C41.855 26.272 42.3456 26.0587 42.7296 25.632C43.1243 25.2053 43.3216 24.6507 43.3216 23.968C43.3216 23.2853 43.1243 22.7307 42.7296 22.304C42.3456 21.8773 41.855 21.664 41.2576 21.664C40.6603 21.664 40.1643 21.8773 39.7696 22.304C39.3856 22.7307 39.1936 23.2853 39.1936 23.968C39.1936 24.6507 39.3856 25.2053 39.7696 25.632C40.1643 26.0587 40.6603 26.272 41.2576 26.272ZM49.3436 28L46.0476 19.92H48.4956L50.3996 25.472L52.3196 19.92H54.7196L51.4076 28H49.3436ZM62.804 27.328C62.452 27.616 61.9933 27.84 61.428 28C60.8733 28.16 60.2653 28.24 59.604 28.24C58.2067 28.24 57.108 27.8613 56.308 27.104C55.5187 26.336 55.124 25.2907 55.124 23.968C55.124 23.104 55.3 22.352 55.652 21.712C56.0147 21.0613 56.5 20.5653 57.108 20.224C57.7267 19.872 58.4253 19.696 59.204 19.696C60.3347 19.696 61.2253 20.048 61.876 20.752C62.5373 21.4453 62.868 22.3947 62.868 23.6V24.56H57.38C57.476 25.1573 57.7213 25.616 58.116 25.936C58.5107 26.256 59.028 26.416 59.668 26.416C60.0947 26.416 60.532 26.352 60.98 26.224C61.4387 26.096 61.812 25.936 62.1 25.744L62.804 27.328ZM59.156 21.456C58.676 21.456 58.2813 21.6 57.972 21.888C57.6627 22.1653 57.4707 22.5653 57.396 23.088H60.788C60.756 22.5653 60.596 22.1653 60.308 21.888C60.0307 21.6 59.6467 21.456 59.156 21.456Z" fill="black"/>
</svg>
