<svg width="100" height="100" viewBox="0 0 100 100" fill="none" xmlns="http://www.w3.org/2000/svg">
<circle cx="50" cy="50" r="48" fill="#FF000F" stroke="#BA0000" stroke-width="4"/>
<path d="M17.1209 58V44.6H26.3009V46.8H19.5809V50.04H25.4809V52.22H19.5809V55.8H26.5009V58H17.1209ZM28.2922 51.7H33.8122V53.88H28.2922V51.7ZM44.2411 47.58C43.7211 47.2467 43.1478 46.9933 42.5211 46.82C41.9078 46.6333 41.2944 46.54 40.6811 46.54C39.9211 46.54 39.3344 46.6867 38.9211 46.98C38.5078 47.2733 38.3011 47.68 38.3011 48.2C38.3011 49.0933 38.9611 49.66 40.2811 49.9L41.7211 50.18C43.0544 50.4333 44.0411 50.8867 44.6811 51.54C45.3344 52.1933 45.6611 53.0667 45.6611 54.16C45.6611 55.48 45.2078 56.5 44.3011 57.22C43.3944 57.94 42.1144 58.3 40.4611 58.3C39.5411 58.3 38.6544 58.1733 37.8011 57.92C36.9611 57.6667 36.2144 57.3 35.5611 56.82L36.4211 54.82C37.0744 55.2067 37.7611 55.5067 38.4811 55.72C39.2011 55.9333 39.8878 56.04 40.5411 56.04C42.2478 56.04 43.1011 55.4867 43.1011 54.38C43.1011 53.86 42.9411 53.46 42.6211 53.18C42.3144 52.9 41.8144 52.7 41.1211 52.58L39.6211 52.3C37.0611 51.7933 35.7811 50.4733 35.7811 48.34C35.7811 47.5133 35.9878 46.8 36.4011 46.2C36.8278 45.5867 37.4078 45.12 38.1411 44.8C38.8744 44.4667 39.7211 44.3 40.6811 44.3C41.5344 44.3 42.3478 44.42 43.1211 44.66C43.8944 44.8867 44.5878 45.2267 45.2011 45.68L44.2411 47.58ZM51.0245 58V46.84H46.8445V44.6H57.6845V46.84H53.5045V58H51.0245ZM65.5452 58.3C64.2118 58.3 63.0318 57.9933 62.0052 57.38C60.9918 56.7667 60.2052 55.9333 59.6452 54.88C59.0985 53.8133 58.8252 52.62 58.8252 51.3C58.8252 49.9 59.1185 48.6733 59.7052 47.62C60.3052 46.5533 61.1118 45.7333 62.1252 45.16C63.1385 44.5867 64.2785 44.3 65.5452 44.3C66.8918 44.3 68.0718 44.6067 69.0852 45.22C70.1118 45.8333 70.8985 46.6733 71.4452 47.74C71.9918 48.7933 72.2652 49.98 72.2652 51.3C72.2652 52.6867 71.9718 53.9133 71.3852 54.98C70.7985 56.0467 69.9985 56.8667 68.9852 57.44C67.9718 58.0133 66.8252 58.3 65.5452 58.3ZM65.5452 56C66.3718 56 67.0985 55.8 67.7252 55.4C68.3518 54.9867 68.8318 54.4267 69.1652 53.72C69.5118 53.0133 69.6852 52.2067 69.6852 51.3C69.6852 50.3667 69.5052 49.54 69.1452 48.82C68.7852 48.1 68.2918 47.5533 67.6652 47.18C67.0385 46.7933 66.3318 46.6 65.5452 46.6C64.3318 46.6 63.3385 47.04 62.5652 47.92C61.8052 48.7867 61.4252 49.9133 61.4252 51.3C61.4252 52.6867 61.8052 53.82 62.5652 54.7C63.3385 55.5667 64.3318 56 65.5452 56ZM74.9725 58V44.6H79.4525C81.1592 44.6 82.4725 44.98 83.3925 45.74C84.3258 46.5 84.7925 47.5867 84.7925 49C84.7925 50.4 84.3325 51.48 83.4125 52.24C82.4925 53 81.1792 53.38 79.4725 53.38H77.4125V58H74.9725ZM79.6725 51.2C80.4992 51.2 81.1392 51.0067 81.5925 50.62C82.0592 50.2333 82.2925 49.6933 82.2925 49C82.2925 48.3067 82.0592 47.7667 81.5925 47.38C81.1392 46.9933 80.4992 46.8 79.6725 46.8H77.4125V51.2H79.6725Z" fill="#FFD000"/>
</svg>
