<svg width="134" height="134" viewBox="0 0 134 134" fill="none" xmlns="http://www.w3.org/2000/svg">
<circle cx="67" cy="67" r="65" fill="white" stroke="#2C3591" stroke-width="4"/>
<path d="M24.8829 59.56C26.0349 59.56 27.0989 59.728 28.0749 60.064C29.0669 60.384 29.8989 60.848 30.5709 61.456L29.2269 63.736C28.7149 63.288 28.0829 62.944 27.3309 62.704C26.5949 62.448 25.8349 62.32 25.0509 62.32C23.9469 62.32 22.9789 62.56 22.1469 63.04C21.3149 63.504 20.6749 64.16 20.2269 65.008C19.7949 65.856 19.5789 66.832 19.5789 67.936C19.5789 69.648 20.0829 71.024 21.0909 72.064C22.0989 73.088 23.4429 73.6 25.1229 73.6C25.9869 73.6 26.7869 73.472 27.5229 73.216C28.2589 72.96 28.8909 72.592 29.4189 72.112L30.6429 74.368C30.0669 74.976 29.2669 75.464 28.2429 75.832C27.2349 76.184 26.1549 76.36 25.0029 76.36C23.2749 76.36 21.7629 76.008 20.4669 75.304C19.1709 74.584 18.1789 73.6 17.4909 72.352C16.8029 71.088 16.4589 69.656 16.4589 68.056C16.4589 66.328 16.8189 64.824 17.5389 63.544C18.2589 62.248 19.2509 61.264 20.5149 60.592C21.7949 59.904 23.2509 59.56 24.8829 59.56ZM42.5383 76C41.9783 76 41.5383 75.888 41.2183 75.664C40.9143 75.44 40.7303 75.08 40.6663 74.584C40.2823 75.16 39.7543 75.6 39.0823 75.904C38.4103 76.192 37.6343 76.336 36.7543 76.336C35.4423 76.336 34.4103 76 33.6583 75.328C32.9223 74.656 32.5543 73.744 32.5543 72.592C32.5543 71.296 33.0263 70.288 33.9703 69.568C34.9303 68.848 36.2663 68.488 37.9783 68.488H40.2343C40.1863 67.576 39.9223 66.904 39.4423 66.472C38.9783 66.04 38.2663 65.824 37.3063 65.824C36.1383 65.824 35.0423 66.144 34.0183 66.784L33.2023 64.912C33.7303 64.496 34.3863 64.168 35.1703 63.928C35.9703 63.688 36.7943 63.568 37.6423 63.568C39.3383 63.568 40.6583 64.016 41.6023 64.912C42.5463 65.808 43.0183 67.056 43.0183 68.656V73.672H44.5543V76H42.5383ZM35.2423 72.304C35.2423 72.88 35.4343 73.328 35.8183 73.648C36.2023 73.968 36.7463 74.128 37.4503 74.128C38.2823 74.128 38.9543 73.888 39.4663 73.408C39.9783 72.912 40.2343 72.264 40.2343 71.464V70.528H38.1943C37.1543 70.528 36.4023 70.672 35.9383 70.96C35.4743 71.248 35.2423 71.696 35.2423 72.304ZM46.8195 76V58.744H49.6275V76H46.8195ZM53.7544 76V66.232H51.9064V63.904H54.8344C55.4264 63.904 55.8584 64.048 56.1304 64.336C56.4184 64.608 56.5624 65.04 56.5624 65.632V76H53.7544ZM54.8584 62.152C54.3464 62.152 53.9224 61.992 53.5864 61.672C53.2504 61.352 53.0824 60.944 53.0824 60.448C53.0824 59.952 53.2504 59.544 53.5864 59.224C53.9224 58.904 54.3464 58.744 54.8584 58.744C55.3704 58.744 55.7944 58.904 56.1304 59.224C56.4664 59.544 56.6344 59.952 56.6344 60.448C56.6344 60.944 56.4664 61.352 56.1304 61.672C55.7944 61.992 55.3704 62.152 54.8584 62.152ZM59.7804 76V58.744H62.5884V65.752C63.0204 65.064 63.5884 64.528 64.2924 64.144C65.0124 63.76 65.8044 63.568 66.6684 63.568C67.7724 63.568 68.7484 63.848 69.5964 64.408C70.4604 64.968 71.1164 65.736 71.5644 66.712C72.0284 67.672 72.2604 68.76 72.2604 69.976C72.2604 71.24 72.0124 72.36 71.5164 73.336C71.0204 74.296 70.3484 75.04 69.5004 75.568C68.6684 76.08 67.7244 76.336 66.6684 76.336C65.7884 76.336 64.9884 76.152 64.2684 75.784C63.5484 75.4 62.9644 74.856 62.5164 74.152V76H59.7804ZM65.9964 73.864C66.9884 73.864 67.8044 73.504 68.4444 72.784C69.0844 72.048 69.4044 71.112 69.4044 69.976C69.4044 68.84 69.0844 67.904 68.4444 67.168C67.8044 66.416 66.9884 66.04 65.9964 66.04C64.9564 66.04 64.1004 66.408 63.4284 67.144C62.7724 67.88 62.4444 68.824 62.4444 69.976C62.4444 71.112 62.7724 72.048 63.4284 72.784C64.1004 73.504 64.9564 73.864 65.9964 73.864ZM82.3131 66.472C82.0571 66.392 81.6411 66.352 81.0651 66.352C80.0091 66.352 79.1851 66.672 78.5931 67.312C78.0171 67.936 77.7291 68.808 77.7291 69.928V76H74.9211V63.904H77.5131V66.136C77.8651 65.368 78.3611 64.776 79.0011 64.36C79.6411 63.944 80.3771 63.736 81.2091 63.736C81.5771 63.736 81.9451 63.792 82.3131 63.904V66.472ZM93.8899 76C93.3299 76 92.8899 75.888 92.5699 75.664C92.2659 75.44 92.0819 75.08 92.0179 74.584C91.6339 75.16 91.1059 75.6 90.4339 75.904C89.7619 76.192 88.9859 76.336 88.1059 76.336C86.7939 76.336 85.7619 76 85.0099 75.328C84.2739 74.656 83.9059 73.744 83.9059 72.592C83.9059 71.296 84.3779 70.288 85.3219 69.568C86.2819 68.848 87.6179 68.488 89.3299 68.488H91.5859C91.5379 67.576 91.2739 66.904 90.7939 66.472C90.3299 66.04 89.6179 65.824 88.6579 65.824C87.4899 65.824 86.3939 66.144 85.3699 66.784L84.5539 64.912C85.0819 64.496 85.7379 64.168 86.5219 63.928C87.3219 63.688 88.1459 63.568 88.9939 63.568C90.6899 63.568 92.0099 64.016 92.9539 64.912C93.8979 65.808 94.3699 67.056 94.3699 68.656V73.672H95.9059V76H93.8899ZM86.5939 72.304C86.5939 72.88 86.7859 73.328 87.1699 73.648C87.5539 73.968 88.0979 74.128 88.8019 74.128C89.6339 74.128 90.3059 73.888 90.8179 73.408C91.3299 72.912 91.5859 72.264 91.5859 71.464V70.528H89.5459C88.5059 70.528 87.7539 70.672 87.2899 70.96C86.8259 71.248 86.5939 71.696 86.5939 72.304ZM103.049 76.336C101.705 76.336 100.689 75.96 100.001 75.208C99.3127 74.456 98.9687 73.352 98.9687 71.896V66.232H96.9287V63.904H98.2007C98.5527 63.904 98.8007 63.832 98.9447 63.688C99.1047 63.544 99.1847 63.296 99.1847 62.944V60.88H101.777V63.904H105.425V66.232H101.777V71.584C101.777 72.416 101.921 73.024 102.209 73.408C102.513 73.776 102.993 73.96 103.649 73.96C104.289 73.96 104.913 73.816 105.521 73.528L106.001 75.64C105.681 75.864 105.257 76.032 104.729 76.144C104.201 76.272 103.641 76.336 103.049 76.336ZM118.694 74.992C118.182 75.424 117.518 75.76 116.702 76C115.886 76.224 114.99 76.336 114.014 76.336C111.982 76.336 110.382 75.768 109.214 74.632C108.046 73.496 107.462 71.936 107.462 69.952C107.462 68.672 107.726 67.552 108.254 66.592C108.782 65.616 109.494 64.872 110.39 64.36C111.302 63.832 112.326 63.568 113.462 63.568C115.11 63.568 116.414 64.096 117.374 65.152C118.334 66.208 118.814 67.632 118.814 69.424V70.768H110.294C110.406 71.808 110.79 72.616 111.446 73.192C112.102 73.752 112.974 74.032 114.062 74.032C114.734 74.032 115.414 73.936 116.102 73.744C116.79 73.552 117.358 73.296 117.806 72.976L118.694 74.992ZM113.39 65.824C112.558 65.824 111.87 66.08 111.326 66.592C110.782 67.104 110.446 67.808 110.318 68.704H116.15C116.102 67.792 115.838 67.088 115.358 66.592C114.878 66.08 114.222 65.824 113.39 65.824Z" fill="black"/>
</svg>
