<svg width="70" height="44" viewBox="0 0 70 44" fill="none" xmlns="http://www.w3.org/2000/svg">
<rect x="1" y="1" width="68" height="42" rx="4" fill="#199ACC"/>
<rect x="1" y="1" width="68" height="42" rx="4" stroke="black" stroke-width="2" stroke-linejoin="round"/>
<path d="M13.184 28V17.28H15.584V21.44H20.208V17.28H22.608V28H20.208V23.664H15.584V28H13.184ZM28.7889 28.24C27.9142 28.24 27.1462 28.0533 26.4849 27.68C25.8235 27.296 25.3115 26.784 24.9489 26.144C24.5969 25.4933 24.4209 24.768 24.4209 23.968C24.4209 23.1147 24.6129 22.368 24.9969 21.728C25.3809 21.0773 25.9035 20.576 26.5649 20.224C27.2262 19.872 27.9675 19.696 28.7889 19.696C29.6635 19.696 30.4315 19.888 31.0929 20.272C31.7542 20.6453 32.2609 21.1573 32.6129 21.808C32.9755 22.448 33.1569 23.168 33.1569 23.968C33.1569 24.8213 32.9649 25.5733 32.5809 26.224C32.1969 26.864 31.6742 27.36 31.0129 27.712C30.3515 28.064 29.6102 28.24 28.7889 28.24ZM28.7889 26.272C29.3862 26.272 29.8769 26.0587 30.2609 25.632C30.6555 25.2053 30.8529 24.6507 30.8529 23.968C30.8529 23.2853 30.6555 22.7307 30.2609 22.304C29.8769 21.8773 29.3862 21.664 28.7889 21.664C28.1915 21.664 27.6955 21.8773 27.3009 22.304C26.9169 22.7307 26.7249 23.2853 26.7249 23.968C26.7249 24.6507 26.9169 25.2053 27.3009 25.632C27.6955 26.0587 28.1915 26.272 28.7889 26.272ZM39.2533 19.696C39.7973 19.696 40.2666 19.84 40.6613 20.128C41.0666 20.4053 41.3759 20.8107 41.5893 21.344C41.8559 20.8107 42.2399 20.4053 42.7413 20.128C43.2426 19.84 43.8239 19.696 44.4853 19.696C45.4133 19.696 46.1386 20.0053 46.6613 20.624C47.1946 21.232 47.4613 22.08 47.4613 23.168V28H45.2053V23.312C45.2053 22.2027 44.7413 21.648 43.8133 21.648C43.3119 21.648 42.9226 21.8187 42.6453 22.16C42.3679 22.4907 42.2292 22.9707 42.2292 23.6V28H39.9733V23.312C39.9733 22.2027 39.5093 21.648 38.5813 21.648C38.0799 21.648 37.6906 21.824 37.4133 22.176C37.1359 22.528 36.9973 23.0347 36.9973 23.696V28H34.7413V19.92H36.8053V21.024C37.0506 20.5973 37.3813 20.272 37.7973 20.048C38.2239 19.8133 38.7093 19.696 39.2533 19.696ZM56.679 27.328C56.327 27.616 55.8683 27.84 55.303 28C54.7483 28.16 54.1403 28.24 53.479 28.24C52.0817 28.24 50.983 27.8613 50.183 27.104C49.3937 26.336 48.999 25.2907 48.999 23.968C48.999 23.104 49.175 22.352 49.527 21.712C49.8897 21.0613 50.375 20.5653 50.983 20.224C51.6017 19.872 52.3003 19.696 53.079 19.696C54.2097 19.696 55.1003 20.048 55.751 20.752C56.4123 21.4453 56.743 22.3947 56.743 23.6V24.56H51.255C51.351 25.1573 51.5963 25.616 51.991 25.936C52.3857 26.256 52.903 26.416 53.543 26.416C53.9697 26.416 54.407 26.352 54.855 26.224C55.3137 26.096 55.687 25.936 55.975 25.744L56.679 27.328ZM53.031 21.456C52.551 21.456 52.1563 21.6 51.847 21.888C51.5377 22.1653 51.3457 22.5653 51.271 23.088H54.663C54.631 22.5653 54.471 22.1653 54.183 21.888C53.9057 21.6 53.5217 21.456 53.031 21.456Z" fill="black"/>
</svg>
