<svg width="271" height="75" viewBox="0 0 271 75" fill="none" xmlns="http://www.w3.org/2000/svg">
<rect width="271" height="75" fill="#D9D9D9"/>
<path d="M86.69 23L83.324 10.94H86.312L88.22 19.328L90.092 12.272H92.702L94.718 19.364L96.608 10.94H99.524L96.158 23H93.458L91.37 15.98L89.372 23H86.69ZM104.735 23.27C103.751 23.27 102.887 23.06 102.143 22.64C101.399 22.208 100.823 21.632 100.415 20.912C100.019 20.18 99.8211 19.364 99.8211 18.464C99.8211 17.504 100.037 16.664 100.469 15.944C100.901 15.212 101.489 14.648 102.233 14.252C102.977 13.856 103.811 13.658 104.735 13.658C105.719 13.658 106.583 13.874 107.327 14.306C108.071 14.726 108.641 15.302 109.037 16.034C109.445 16.754 109.649 17.564 109.649 18.464C109.649 19.424 109.433 20.27 109.001 21.002C108.569 21.722 107.981 22.28 107.237 22.676C106.493 23.072 105.659 23.27 104.735 23.27ZM104.735 21.056C105.407 21.056 105.959 20.816 106.391 20.336C106.835 19.856 107.057 19.232 107.057 18.464C107.057 17.696 106.835 17.072 106.391 16.592C105.959 16.112 105.407 15.872 104.735 15.872C104.063 15.872 103.505 16.112 103.061 16.592C102.629 17.072 102.413 17.696 102.413 18.464C102.413 19.232 102.629 19.856 103.061 20.336C103.505 20.816 104.063 21.056 104.735 21.056ZM117.282 16.232C117.03 16.16 116.694 16.124 116.274 16.124C115.542 16.124 114.972 16.34 114.564 16.772C114.168 17.204 113.97 17.804 113.97 18.572V23H111.432V13.91H113.754V15.53C114.006 14.966 114.36 14.534 114.816 14.234C115.284 13.922 115.818 13.766 116.418 13.766C116.742 13.766 117.03 13.814 117.282 13.91V16.232ZM124.539 13.91H127.563L124.017 17.654L128.121 23H124.953L122.361 19.418L121.299 20.552V23H118.797V10.058H121.299V17.51L124.539 13.91ZM138.063 23.27C137.079 23.27 136.215 23.06 135.471 22.64C134.727 22.208 134.151 21.632 133.743 20.912C133.347 20.18 133.149 19.364 133.149 18.464C133.149 17.504 133.365 16.664 133.797 15.944C134.229 15.212 134.817 14.648 135.561 14.252C136.305 13.856 137.139 13.658 138.063 13.658C139.047 13.658 139.911 13.874 140.655 14.306C141.399 14.726 141.969 15.302 142.365 16.034C142.773 16.754 142.977 17.564 142.977 18.464C142.977 19.424 142.761 20.27 142.329 21.002C141.897 21.722 141.309 22.28 140.565 22.676C139.821 23.072 138.987 23.27 138.063 23.27ZM138.063 21.056C138.735 21.056 139.287 20.816 139.719 20.336C140.163 19.856 140.385 19.232 140.385 18.464C140.385 17.696 140.163 17.072 139.719 16.592C139.287 16.112 138.735 15.872 138.063 15.872C137.391 15.872 136.833 16.112 136.389 16.592C135.957 17.072 135.741 17.696 135.741 18.464C135.741 19.232 135.957 19.856 136.389 20.336C136.833 20.816 137.391 21.056 138.063 21.056ZM144.76 23V10.058H147.298V15.116C147.622 14.636 148.03 14.276 148.522 14.036C149.026 13.784 149.584 13.658 150.196 13.658C151.024 13.658 151.756 13.868 152.392 14.288C153.028 14.708 153.514 15.284 153.85 16.016C154.198 16.736 154.372 17.552 154.372 18.464C154.372 19.424 154.186 20.27 153.814 21.002C153.454 21.734 152.956 22.298 152.32 22.694C151.696 23.078 150.988 23.27 150.196 23.27C149.572 23.27 149.002 23.144 148.486 22.892C147.982 22.628 147.562 22.262 147.226 21.794V23H144.76ZM149.512 21.056C150.184 21.056 150.73 20.816 151.15 20.336C151.57 19.856 151.78 19.232 151.78 18.464C151.78 17.696 151.57 17.072 151.15 16.592C150.73 16.112 150.184 15.872 149.512 15.872C148.816 15.872 148.252 16.112 147.82 16.592C147.388 17.072 147.172 17.696 147.172 18.464C147.172 19.232 147.388 19.856 147.82 20.336C148.252 20.816 148.816 21.056 149.512 21.056ZM155.538 13.91H157.986C158.466 13.91 158.82 14.024 159.048 14.252C159.276 14.48 159.39 14.834 159.39 15.314V23.576C159.39 24.632 159.102 25.448 158.526 26.024C157.962 26.612 157.17 26.906 156.15 26.906C155.862 26.906 155.58 26.87 155.304 26.798C155.028 26.738 154.8 26.654 154.62 26.546L155.016 24.674C155.232 24.77 155.448 24.818 155.664 24.818C156.456 24.818 156.852 24.35 156.852 23.414V15.98H155.538V13.91ZM157.896 12.92C157.44 12.92 157.068 12.782 156.78 12.506C156.492 12.23 156.348 11.882 156.348 11.462C156.348 11.042 156.492 10.694 156.78 10.418C157.068 10.142 157.44 10.004 157.896 10.004C158.352 10.004 158.724 10.142 159.012 10.418C159.3 10.694 159.444 11.042 159.444 11.462C159.444 11.882 159.3 12.23 159.012 12.506C158.724 12.782 158.352 12.92 157.896 12.92ZM169.791 22.244C169.395 22.568 168.879 22.82 168.243 23C167.619 23.18 166.935 23.27 166.191 23.27C164.619 23.27 163.383 22.844 162.483 21.992C161.595 21.128 161.151 19.952 161.151 18.464C161.151 17.492 161.349 16.646 161.745 15.926C162.153 15.194 162.699 14.636 163.383 14.252C164.079 13.856 164.865 13.658 165.741 13.658C167.013 13.658 168.015 14.054 168.747 14.846C169.491 15.626 169.863 16.694 169.863 18.05V19.13H163.689C163.797 19.802 164.073 20.318 164.517 20.678C164.961 21.038 165.543 21.218 166.263 21.218C166.743 21.218 167.235 21.146 167.739 21.002C168.255 20.858 168.675 20.678 168.999 20.462L169.791 22.244ZM165.687 15.638C165.147 15.638 164.703 15.8 164.355 16.124C164.007 16.436 163.791 16.886 163.707 17.474H167.523C167.487 16.886 167.307 16.436 166.983 16.124C166.671 15.8 166.239 15.638 165.687 15.638ZM176.083 23.27C174.619 23.27 173.449 22.844 172.573 21.992C171.697 21.128 171.259 19.976 171.259 18.536C171.259 17.552 171.469 16.688 171.889 15.944C172.309 15.2 172.885 14.636 173.617 14.252C174.349 13.856 175.183 13.658 176.119 13.658C177.523 13.658 178.675 14.108 179.575 15.008L178.441 16.718C177.853 16.142 177.127 15.854 176.263 15.854C175.531 15.854 174.943 16.094 174.499 16.574C174.067 17.042 173.851 17.672 173.851 18.464C173.851 19.244 174.067 19.874 174.499 20.354C174.943 20.822 175.525 21.056 176.245 21.056C176.677 21.056 177.109 20.978 177.541 20.822C177.973 20.666 178.321 20.468 178.585 20.228L179.593 22.046C179.173 22.418 178.645 22.718 178.009 22.946C177.385 23.162 176.743 23.27 176.083 23.27ZM185.427 23.27C184.359 23.27 183.549 22.982 182.997 22.406C182.445 21.818 182.169 20.96 182.169 19.832V15.98H180.675V13.91H181.593C181.869 13.91 182.067 13.856 182.187 13.748C182.307 13.628 182.367 13.43 182.367 13.154V11.642H184.707V13.91H187.353V15.98H184.707V19.526C184.707 20.09 184.803 20.498 184.995 20.75C185.199 21.002 185.529 21.128 185.985 21.128C186.453 21.128 186.915 21.026 187.371 20.822L187.785 22.712C187.509 22.892 187.161 23.03 186.741 23.126C186.333 23.222 185.895 23.27 185.427 23.27Z" fill="black"/>
</svg>
