<svg width="100" height="100" viewBox="0 0 100 100" fill="none" xmlns="http://www.w3.org/2000/svg">
<circle cx="50" cy="50" r="48" fill="white" stroke="#2C3591" stroke-width="4"/>
<path fill-rule="evenodd" clip-rule="evenodd" d="M66.6085 44.9098C67.8922 48.1092 67.825 51.5863 66.4182 54.7485C65.6855 56.3954 64.2334 58.2746 62.6374 59.8974C62.4178 60.1206 62.1919 60.3427 61.9608 60.5621H65.3668C66.5585 60.5621 67.5246 61.3794 67.5246 62.3876C67.5246 63.3958 66.5585 64.2131 65.3668 64.2131H56.2121C55.0204 64.2131 54.0543 63.3958 54.0543 62.3876V54.6426C54.0543 53.6344 55.0204 52.8171 56.2121 52.8171C57.4038 52.8171 58.3699 53.6344 58.3699 54.6426V58.4756C58.6887 58.1861 59.007 57.8804 59.32 57.5622C60.753 56.1051 61.8809 54.5824 62.3792 53.4624C63.4343 51.0908 63.4847 48.483 62.5219 46.0834C61.5591 43.6838 59.6427 41.6409 57.099 40.3028C54.5554 38.9646 51.5421 38.414 48.5724 38.7448C45.6027 39.0755 42.8605 40.2672 40.813 42.1167C38.7654 43.9662 37.5392 46.3592 37.3433 48.8878C37.1474 51.4164 37.9939 53.9243 39.7386 55.9841C41.4833 58.0439 44.0182 59.5282 46.9114 60.184C48.0626 60.445 48.7457 61.446 48.4372 62.4198C48.1288 63.3937 46.9456 63.9716 45.7945 63.7107C41.9369 62.8362 38.557 60.8571 36.2307 58.1107C33.9045 55.3643 32.7758 52.0205 33.037 48.649C33.2982 45.2775 34.9331 42.0869 37.6632 39.6209C40.3933 37.1549 44.0496 35.566 48.0091 35.125C51.9687 34.684 55.9865 35.4181 59.378 37.2023C62.7694 38.9865 65.3247 41.7104 66.6085 44.9098Z" fill="#0026FF"/>
</svg>
