<svg width="86" height="44" viewBox="0 0 86 44" fill="none" xmlns="http://www.w3.org/2000/svg">
<rect x="1" y="1" width="84" height="42" rx="4" fill="white"/>
<rect x="1" y="1" width="84" height="42" rx="4" stroke="black" stroke-width="2" stroke-linejoin="round"/>
<path d="M29.696 19.936C28.7787 19.4027 27.8133 19.136 26.8 19.136C26.2987 19.136 25.9093 19.232 25.632 19.424C25.3547 19.6053 25.216 19.872 25.216 20.224C25.216 20.8 25.648 21.168 26.512 21.328L27.776 21.568C28.864 21.7813 29.664 22.1547 30.176 22.688C30.6987 23.2107 30.96 23.9147 30.96 24.8C30.96 25.8987 30.5867 26.752 29.84 27.36C29.104 27.9573 28.064 28.256 26.72 28.256C25.1733 28.256 23.8133 27.8507 22.64 27.04L23.408 25.136C23.9947 25.456 24.5813 25.7013 25.168 25.872C25.7547 26.0427 26.2987 26.128 26.8 26.128C27.952 26.128 28.528 25.7653 28.528 25.04C28.528 24.6987 28.4267 24.4373 28.224 24.256C28.032 24.0747 27.7067 23.9413 27.248 23.856L25.888 23.6C24.8747 23.3973 24.1067 23.024 23.584 22.48C23.072 21.936 22.816 21.232 22.816 20.368C22.816 19.6853 22.9867 19.0933 23.328 18.592C23.68 18.08 24.1547 17.6907 24.752 17.424C25.36 17.1573 26.0533 17.024 26.832 17.024C28.24 17.024 29.4827 17.4027 30.56 18.16L29.696 19.936ZM36.5233 28.24C35.6486 28.24 34.8806 28.0533 34.2193 27.68C33.5579 27.296 33.0459 26.784 32.6833 26.144C32.3313 25.4933 32.1553 24.768 32.1553 23.968C32.1553 23.1147 32.3473 22.368 32.7313 21.728C33.1153 21.0773 33.6379 20.576 34.2993 20.224C34.9606 19.872 35.7019 19.696 36.5233 19.696C37.3979 19.696 38.1659 19.888 38.8273 20.272C39.4886 20.6453 39.9953 21.1573 40.3472 21.808C40.7099 22.448 40.8913 23.168 40.8913 23.968C40.8913 24.8213 40.6993 25.5733 40.3153 26.224C39.9313 26.864 39.4086 27.36 38.7473 27.712C38.0859 28.064 37.3446 28.24 36.5233 28.24ZM36.5233 26.272C37.1206 26.272 37.6113 26.0587 37.9953 25.632C38.3899 25.2053 38.5873 24.6507 38.5873 23.968C38.5873 23.2853 38.3899 22.7307 37.9953 22.304C37.6113 21.8773 37.1206 21.664 36.5233 21.664C35.9259 21.664 35.4299 21.8773 35.0353 22.304C34.6513 22.7307 34.4593 23.2853 34.4593 23.968C34.4593 24.6507 34.6513 25.2053 35.0353 25.632C35.4299 26.0587 35.9259 26.272 36.5233 26.272ZM42.4756 28V16.496H44.7316V28H42.4756ZM49.0155 28L45.7195 19.92H48.1675L50.0715 25.472L51.9915 19.92H54.3915L51.0795 28H49.0155ZM62.4759 27.328C62.1239 27.616 61.6652 27.84 61.0999 28C60.5452 28.16 59.9372 28.24 59.2759 28.24C57.8785 28.24 56.7799 27.8613 55.9799 27.104C55.1905 26.336 54.7959 25.2907 54.7959 23.968C54.7959 23.104 54.9719 22.352 55.3239 21.712C55.6865 21.0613 56.1719 20.5653 56.7799 20.224C57.3985 19.872 58.0972 19.696 58.8759 19.696C60.0065 19.696 60.8972 20.048 61.5479 20.752C62.2092 21.4453 62.5399 22.3947 62.5399 23.6V24.56H57.0519C57.1479 25.1573 57.3932 25.616 57.7879 25.936C58.1825 26.256 58.6999 26.416 59.3399 26.416C59.7665 26.416 60.2039 26.352 60.6519 26.224C61.1105 26.096 61.4839 25.936 61.7719 25.744L62.4759 27.328ZM58.8279 21.456C58.3479 21.456 57.9532 21.6 57.6439 21.888C57.3345 22.1653 57.1425 22.5653 57.0679 23.088H60.4599C60.4279 22.5653 60.2679 22.1653 59.9799 21.888C59.7025 21.6 59.3185 21.456 58.8279 21.456Z" fill="black"/>
</svg>
