<svg width="100" height="100" viewBox="0 0 100 100" fill="none" xmlns="http://www.w3.org/2000/svg">
<circle cx="50" cy="50" r="48" fill="white" stroke="#2C3591" stroke-width="4"/>
<path fill-rule="evenodd" clip-rule="evenodd" d="M33.9161 44.9098C32.6324 48.1092 32.6996 51.5863 34.1064 54.7485C34.8391 56.3954 36.2912 58.2746 37.8872 59.8974C38.1067 60.1206 38.3327 60.3427 38.5638 60.5621H35.1578C33.9661 60.5621 33 61.3794 33 62.3876C33 63.3958 33.9661 64.2131 35.1578 64.2131H44.3125C45.5042 64.2131 46.4703 63.3958 46.4703 62.3876V54.6426C46.4703 53.6344 45.5042 52.8171 44.3125 52.8171C43.1208 52.8171 42.1547 53.6344 42.1547 54.6426V58.4756C41.8359 58.1861 41.5176 57.8804 41.2046 57.5622C39.7716 56.1051 38.6436 54.5824 38.1454 53.4624C37.0903 51.0908 37.0398 48.483 38.0027 46.0834C38.9655 43.6838 40.8819 41.6409 43.4255 40.3028C45.9692 38.9646 48.9825 38.414 51.9522 38.7448C54.9218 39.0755 57.6641 40.2672 59.7116 42.1167C61.7592 43.9662 62.9854 46.3592 63.1813 48.8878C63.3772 51.4164 62.5307 53.9243 60.786 55.9841C59.0413 58.0439 56.5064 59.5282 53.6131 60.184C52.462 60.445 51.7789 61.446 52.0874 62.4198C52.3958 63.3937 53.579 63.9716 54.7301 63.7107C58.5877 62.8362 61.9676 60.8571 64.2939 58.1107C66.6201 55.3643 67.7488 52.0205 67.4876 48.649C67.2264 45.2775 65.5915 42.0869 62.8614 39.6209C60.1313 37.1549 56.475 35.566 52.5155 35.125C48.5559 34.684 44.5381 35.4181 41.1466 37.2023C37.7552 38.9865 35.1998 41.7104 33.9161 44.9098Z" fill="#0026FF"/>
</svg>
