<svg width="271" height="75" viewBox="0 0 271 75" fill="none" xmlns="http://www.w3.org/2000/svg">
<rect width="271" height="75" fill="#D9D9D9"/>
<path d="M60.272 5.652C61.136 5.652 61.946 5.778 62.702 6.03C63.47 6.27 64.112 6.612 64.628 7.056L63.458 9.126C63.074 8.814 62.618 8.574 62.09 8.406C61.562 8.238 61.01 8.154 60.434 8.154C59.294 8.154 58.376 8.502 57.68 9.198C56.996 9.882 56.654 10.806 56.654 11.97C56.654 13.122 56.996 14.046 57.68 14.742C58.376 15.438 59.294 15.786 60.434 15.786C61.706 15.786 62.762 15.408 63.602 14.652L64.7 16.686C64.256 17.166 63.632 17.556 62.828 17.856C62.036 18.144 61.196 18.288 60.308 18.288C59.012 18.288 57.872 18.024 56.888 17.496C55.904 16.956 55.148 16.218 54.62 15.282C54.104 14.346 53.846 13.278 53.846 12.078C53.846 10.77 54.122 9.63 54.674 8.658C55.226 7.686 55.982 6.942 56.942 6.426C57.914 5.91 59.024 5.652 60.272 5.652ZM70.5691 18.27C69.5851 18.27 68.7211 18.06 67.9771 17.64C67.2331 17.208 66.6571 16.632 66.2491 15.912C65.8531 15.18 65.6551 14.364 65.6551 13.464C65.6551 12.504 65.8711 11.664 66.3031 10.944C66.7351 10.212 67.3231 9.648 68.0671 9.252C68.8111 8.856 69.6451 8.658 70.5691 8.658C71.5531 8.658 72.4171 8.874 73.1611 9.306C73.9051 9.726 74.4751 10.302 74.8711 11.034C75.2791 11.754 75.4831 12.564 75.4831 13.464C75.4831 14.424 75.2671 15.27 74.8351 16.002C74.4031 16.722 73.8151 17.28 73.0711 17.676C72.3271 18.072 71.4931 18.27 70.5691 18.27ZM70.5691 16.056C71.2411 16.056 71.7931 15.816 72.2251 15.336C72.6691 14.856 72.8911 14.232 72.8911 13.464C72.8911 12.696 72.6691 12.072 72.2251 11.592C71.7931 11.112 71.2411 10.872 70.5691 10.872C69.8971 10.872 69.3391 11.112 68.8951 11.592C68.4631 12.072 68.2471 12.696 68.2471 13.464C68.2471 14.232 68.4631 14.856 68.8951 15.336C69.3391 15.816 69.8971 16.056 70.5691 16.056ZM81.8015 18.27C80.8175 18.27 79.9535 18.06 79.2095 17.64C78.4655 17.208 77.8895 16.632 77.4815 15.912C77.0855 15.18 76.8875 14.364 76.8875 13.464C76.8875 12.504 77.1035 11.664 77.5355 10.944C77.9675 10.212 78.5555 9.648 79.2995 9.252C80.0435 8.856 80.8775 8.658 81.8015 8.658C82.7855 8.658 83.6495 8.874 84.3935 9.306C85.1375 9.726 85.7075 10.302 86.1035 11.034C86.5115 11.754 86.7155 12.564 86.7155 13.464C86.7155 14.424 86.4995 15.27 86.0675 16.002C85.6355 16.722 85.0475 17.28 84.3035 17.676C83.5595 18.072 82.7255 18.27 81.8015 18.27ZM81.8015 16.056C82.4735 16.056 83.0255 15.816 83.4575 15.336C83.9015 14.856 84.1235 14.232 84.1235 13.464C84.1235 12.696 83.9015 12.072 83.4575 11.592C83.0255 11.112 82.4735 10.872 81.8015 10.872C81.1295 10.872 80.5715 11.112 80.1275 11.592C79.6955 12.072 79.4795 12.696 79.4795 13.464C79.4795 14.232 79.6955 14.856 80.1275 15.336C80.5715 15.816 81.1295 16.056 81.8015 16.056ZM94.348 11.232C94.096 11.16 93.76 11.124 93.34 11.124C92.608 11.124 92.038 11.34 91.63 11.772C91.234 12.204 91.036 12.804 91.036 13.572V18H88.498V8.91H90.82V10.53C91.072 9.966 91.426 9.534 91.882 9.234C92.35 8.922 92.884 8.766 93.484 8.766C93.808 8.766 94.096 8.814 94.348 8.91V11.232ZM102.455 18V16.794C102.215 17.106 101.939 17.376 101.627 17.604C101.315 17.82 100.979 17.982 100.619 18.09C100.259 18.21 99.8814 18.27 99.4854 18.27C98.6574 18.27 97.9254 18.06 97.2894 17.64C96.6534 17.22 96.1614 16.65 95.8134 15.93C95.4774 15.198 95.3094 14.376 95.3094 13.464C95.3094 12.504 95.4894 11.658 95.8494 10.926C96.2214 10.194 96.7194 9.636 97.3434 9.252C97.9794 8.856 98.6934 8.658 99.4854 8.658C100.097 8.658 100.649 8.784 101.141 9.036C101.645 9.276 102.059 9.636 102.383 10.116V5.058H104.921V18H102.455ZM100.169 16.056C100.865 16.056 101.429 15.816 101.861 15.336C102.293 14.856 102.509 14.232 102.509 13.464C102.509 12.696 102.293 12.072 101.861 11.592C101.429 11.112 100.865 10.872 100.169 10.872C99.4974 10.872 98.9514 11.112 98.5314 11.592C98.1114 12.072 97.9014 12.696 97.9014 13.464C97.9014 14.232 98.1114 14.856 98.5314 15.336C98.9514 15.816 99.4974 16.056 100.169 16.056ZM107.78 18V10.98H106.466V8.91H108.914C109.394 8.91 109.748 9.024 109.976 9.252C110.204 9.48 110.318 9.834 110.318 10.314V18H107.78ZM108.824 7.92C108.368 7.92 107.996 7.782 107.708 7.506C107.42 7.23 107.276 6.882 107.276 6.462C107.276 6.042 107.42 5.694 107.708 5.418C107.996 5.142 108.368 5.004 108.824 5.004C109.28 5.004 109.652 5.142 109.94 5.418C110.228 5.694 110.372 6.042 110.372 6.462C110.372 6.882 110.228 7.23 109.94 7.506C109.652 7.782 109.28 7.92 108.824 7.92ZM118.487 18V12.726C118.487 11.478 117.941 10.854 116.849 10.854C116.261 10.854 115.805 11.052 115.481 11.448C115.157 11.844 114.995 12.414 114.995 13.158V18H112.457V8.91H114.779V10.188C115.079 9.684 115.469 9.306 115.949 9.054C116.441 8.79 116.993 8.658 117.605 8.658C118.673 8.658 119.507 9.006 120.107 9.702C120.719 10.386 121.025 11.34 121.025 12.564V18H118.487ZM130.327 18C129.883 18 129.535 17.916 129.283 17.748C129.043 17.58 128.887 17.31 128.815 16.938C128.527 17.37 128.125 17.7 127.609 17.928C127.105 18.156 126.529 18.27 125.881 18.27C124.909 18.27 124.141 18.018 123.577 17.514C123.013 16.998 122.731 16.302 122.731 15.426C122.731 14.442 123.091 13.68 123.811 13.14C124.531 12.588 125.551 12.312 126.871 12.312H128.329C128.293 11.724 128.113 11.298 127.789 11.034C127.477 10.77 126.991 10.638 126.331 10.638C125.503 10.638 124.705 10.872 123.937 11.34L123.217 9.666C123.637 9.354 124.147 9.108 124.747 8.928C125.359 8.748 126.001 8.658 126.673 8.658C127.993 8.658 129.019 9 129.751 9.684C130.483 10.356 130.849 11.298 130.849 12.51V15.93H131.947V18H130.327ZM125.143 15.138C125.143 15.522 125.263 15.822 125.503 16.038C125.755 16.242 126.103 16.344 126.547 16.344C127.087 16.344 127.519 16.176 127.843 15.84C128.179 15.504 128.347 15.054 128.347 14.49V13.95H127.069C126.397 13.95 125.905 14.046 125.593 14.238C125.293 14.43 125.143 14.73 125.143 15.138ZM137.409 18.27C136.341 18.27 135.531 17.982 134.979 17.406C134.427 16.818 134.151 15.96 134.151 14.832V10.98H132.657V8.91H133.575C133.851 8.91 134.049 8.856 134.169 8.748C134.289 8.628 134.349 8.43 134.349 8.154V6.642H136.689V8.91H139.335V10.98H136.689V14.526C136.689 15.09 136.785 15.498 136.977 15.75C137.181 16.002 137.511 16.128 137.967 16.128C138.435 16.128 138.897 16.026 139.353 15.822L139.767 17.712C139.491 17.892 139.143 18.03 138.723 18.126C138.315 18.222 137.877 18.27 137.409 18.27ZM149.424 17.244C149.028 17.568 148.512 17.82 147.876 18C147.252 18.18 146.568 18.27 145.824 18.27C144.252 18.27 143.016 17.844 142.116 16.992C141.228 16.128 140.784 14.952 140.784 13.464C140.784 12.492 140.982 11.646 141.378 10.926C141.786 10.194 142.332 9.636 143.016 9.252C143.712 8.856 144.498 8.658 145.374 8.658C146.646 8.658 147.648 9.054 148.38 9.846C149.124 10.626 149.496 11.694 149.496 13.05V14.13H143.322C143.43 14.802 143.706 15.318 144.15 15.678C144.594 16.038 145.176 16.218 145.896 16.218C146.376 16.218 146.868 16.146 147.372 16.002C147.888 15.858 148.308 15.678 148.632 15.462L149.424 17.244ZM145.32 10.638C144.78 10.638 144.336 10.8 143.988 11.124C143.64 11.436 143.424 11.886 143.34 12.474H147.156C147.12 11.886 146.94 11.436 146.616 11.124C146.304 10.8 145.872 10.638 145.32 10.638ZM159.194 18.27C158.45 18.27 157.718 18.18 156.998 18C156.278 17.808 155.696 17.562 155.252 17.262L155.918 15.354C156.278 15.606 156.776 15.822 157.412 16.002C158.048 16.17 158.63 16.254 159.158 16.254C159.626 16.254 159.986 16.182 160.238 16.038C160.49 15.894 160.616 15.684 160.616 15.408C160.616 15 160.262 14.73 159.554 14.598L158.294 14.382C156.338 14.046 155.36 13.116 155.36 11.592C155.36 10.692 155.702 9.978 156.386 9.45C157.07 8.922 157.994 8.658 159.158 8.658C159.878 8.658 160.544 8.748 161.156 8.928C161.768 9.096 162.29 9.336 162.722 9.648L162.002 11.394C161.594 11.166 161.144 10.992 160.652 10.872C160.16 10.74 159.686 10.674 159.23 10.674C158.786 10.674 158.444 10.74 158.204 10.872C157.964 10.992 157.844 11.172 157.844 11.412C157.844 11.772 158.156 12.006 158.78 12.114L159.914 12.33C161.03 12.534 161.84 12.864 162.344 13.32C162.848 13.776 163.1 14.406 163.1 15.21C163.1 16.17 162.752 16.92 162.056 17.46C161.372 18 160.418 18.27 159.194 18.27ZM170.091 18.018C169.791 18.762 169.497 19.368 169.209 19.836C168.933 20.316 168.621 20.706 168.273 21.006C167.925 21.306 167.529 21.528 167.085 21.672C166.653 21.828 166.149 21.906 165.573 21.906C165.225 21.906 164.895 21.87 164.583 21.798C164.271 21.726 164.043 21.642 163.899 21.546L164.259 19.44C164.619 19.596 165.021 19.674 165.465 19.674C166.017 19.674 166.449 19.554 166.761 19.314C167.073 19.086 167.349 18.708 167.589 18.18L167.715 17.892L163.953 8.91H166.707L168.867 14.994L171.009 8.91H173.709L170.091 18.018ZM178.459 18.27C177.715 18.27 176.983 18.18 176.263 18C175.543 17.808 174.961 17.562 174.517 17.262L175.183 15.354C175.543 15.606 176.041 15.822 176.677 16.002C177.313 16.17 177.895 16.254 178.423 16.254C178.891 16.254 179.251 16.182 179.503 16.038C179.755 15.894 179.881 15.684 179.881 15.408C179.881 15 179.527 14.73 178.819 14.598L177.559 14.382C175.603 14.046 174.625 13.116 174.625 11.592C174.625 10.692 174.967 9.978 175.651 9.45C176.335 8.922 177.259 8.658 178.423 8.658C179.143 8.658 179.809 8.748 180.421 8.928C181.033 9.096 181.555 9.336 181.987 9.648L181.267 11.394C180.859 11.166 180.409 10.992 179.917 10.872C179.425 10.74 178.951 10.674 178.495 10.674C178.051 10.674 177.709 10.74 177.469 10.872C177.229 10.992 177.109 11.172 177.109 11.412C177.109 11.772 177.421 12.006 178.045 12.114L179.179 12.33C180.295 12.534 181.105 12.864 181.609 13.32C182.113 13.776 182.365 14.406 182.365 15.21C182.365 16.17 182.017 16.92 181.321 17.46C180.637 18 179.683 18.27 178.459 18.27ZM188.263 18.27C187.195 18.27 186.385 17.982 185.833 17.406C185.281 16.818 185.005 15.96 185.005 14.832V10.98H183.511V8.91H184.429C184.705 8.91 184.903 8.856 185.023 8.748C185.143 8.628 185.203 8.43 185.203 8.154V6.642H187.543V8.91H190.189V10.98H187.543V14.526C187.543 15.09 187.639 15.498 187.831 15.75C188.035 16.002 188.365 16.128 188.821 16.128C189.289 16.128 189.751 16.026 190.207 15.822L190.621 17.712C190.345 17.892 189.997 18.03 189.577 18.126C189.169 18.222 188.731 18.27 188.263 18.27ZM200.278 17.244C199.882 17.568 199.366 17.82 198.73 18C198.106 18.18 197.422 18.27 196.678 18.27C195.106 18.27 193.87 17.844 192.97 16.992C192.082 16.128 191.638 14.952 191.638 13.464C191.638 12.492 191.836 11.646 192.232 10.926C192.64 10.194 193.186 9.636 193.87 9.252C194.566 8.856 195.352 8.658 196.228 8.658C197.5 8.658 198.502 9.054 199.234 9.846C199.978 10.626 200.35 11.694 200.35 13.05V14.13H194.176C194.284 14.802 194.56 15.318 195.004 15.678C195.448 16.038 196.03 16.218 196.75 16.218C197.23 16.218 197.722 16.146 198.226 16.002C198.742 15.858 199.162 15.678 199.486 15.462L200.278 17.244ZM196.174 10.638C195.634 10.638 195.19 10.8 194.842 11.124C194.494 11.436 194.278 11.886 194.194 12.474H198.01C197.974 11.886 197.794 11.436 197.47 11.124C197.158 10.8 196.726 10.638 196.174 10.638ZM207.199 8.658C207.811 8.658 208.339 8.82 208.783 9.144C209.239 9.456 209.587 9.912 209.827 10.512C210.127 9.912 210.559 9.456 211.123 9.144C211.687 8.82 212.341 8.658 213.085 8.658C214.129 8.658 214.945 9.006 215.533 9.702C216.133 10.386 216.433 11.34 216.433 12.564V18H213.895V12.726C213.895 11.478 213.373 10.854 212.329 10.854C211.765 10.854 211.327 11.046 211.015 11.43C210.703 11.802 210.547 12.342 210.547 13.05V18H208.009V12.726C208.009 11.478 207.487 10.854 206.443 10.854C205.879 10.854 205.441 11.052 205.129 11.448C204.817 11.844 204.661 12.414 204.661 13.158V18H202.123V8.91H204.445V10.152C204.721 9.672 205.093 9.306 205.561 9.054C206.041 8.79 206.587 8.658 207.199 8.658Z" fill="black"/>
</svg>
