<svg width="41" height="13" viewBox="0 0 41 13" fill="none" xmlns="http://www.w3.org/2000/svg">
<path d="M6.76806 5.34058e-05C7.58406 5.34058e-05 8.28806 0.216054 8.88006 0.648054C9.48806 1.06405 9.95206 1.67205 10.2721 2.47205C10.6721 1.67205 11.2481 1.06405 12.0001 0.648054C12.7521 0.216054 13.6241 5.34058e-05 14.6161 5.34058e-05C16.0081 5.34058e-05 17.0961 0.464054 17.8801 1.39205C18.6801 2.30405 19.0801 3.57605 19.0801 5.20805V12.4561H15.6961V5.42405C15.6961 3.76005 15.0001 2.92805 13.6081 2.92805C12.8561 2.92805 12.2721 3.18405 11.8561 3.69605C11.4401 4.19205 11.2321 4.91205 11.2321 5.85605V12.4561H7.84806V5.42405C7.84806 3.76005 7.15206 2.92805 5.76006 2.92805C5.00806 2.92805 4.42406 3.19205 4.00806 3.72005C3.59206 4.24805 3.38406 5.00805 3.38406 6.00005V12.4561H5.8651e-05V0.336055H3.09606V1.99205C3.46406 1.35205 3.96006 0.864054 4.58406 0.528054C5.22406 0.176054 5.95206 5.34058e-05 6.76806 5.34058e-05ZM28.6587 5.34058e-05C29.4747 5.34058e-05 30.1787 0.216054 30.7707 0.648054C31.3787 1.06405 31.8427 1.67205 32.1627 2.47205C32.5627 1.67205 33.1387 1.06405 33.8907 0.648054C34.6427 0.216054 35.5147 5.34058e-05 36.5067 5.34058e-05C37.8987 5.34058e-05 38.9867 0.464054 39.7707 1.39205C40.5707 2.30405 40.9707 3.57605 40.9707 5.20805V12.4561H37.5867V5.42405C37.5867 3.76005 36.8907 2.92805 35.4987 2.92805C34.7467 2.92805 34.1627 3.18405 33.7467 3.69605C33.3307 4.19205 33.1227 4.91205 33.1227 5.85605V12.4561H29.7387V5.42405C29.7387 3.76005 29.0427 2.92805 27.6507 2.92805C26.8987 2.92805 26.3147 3.19205 25.8987 3.72005C25.4827 4.24805 25.2747 5.00805 25.2747 6.00005V12.4561H21.8907V0.336055H24.9867V1.99205C25.3547 1.35205 25.8507 0.864054 26.4747 0.528054C27.1147 0.176054 27.8427 5.34058e-05 28.6587 5.34058e-05Z" fill="black"/>
</svg>
