<svg width="89" height="44" viewBox="0 0 89 44" fill="none" xmlns="http://www.w3.org/2000/svg">
<rect x="1" y="1" width="87" height="42" rx="4" fill="white"/>
<rect x="1" y="1" width="87" height="42" rx="4" stroke="black" stroke-width="2" stroke-linejoin="round"/>
<path d="M19.328 28L17.104 24.32L15.056 28H12.256L15.696 22.544L12.416 17.28H15.328L17.344 20.736L19.28 17.28H22.08L18.736 22.512L22.24 28H19.328ZM22.9075 22.72H27.4195V24.832H22.9075V22.72ZM29.3246 28V17.28H31.7246V25.776H36.7006V28H29.3246ZM38.7559 28V21.76H37.5879V19.92H39.7639C40.1905 19.92 40.5052 20.0213 40.7079 20.224C40.9105 20.4267 41.0119 20.7413 41.0119 21.168V28H38.7559ZM39.6839 19.04C39.2785 19.04 38.9479 18.9173 38.6919 18.672C38.4359 18.4267 38.3079 18.1173 38.3079 17.744C38.3079 17.3707 38.4359 17.0613 38.6919 16.816C38.9479 16.5707 39.2785 16.448 39.6839 16.448C40.0892 16.448 40.4199 16.5707 40.6759 16.816C40.9319 17.0613 41.0599 17.3707 41.0599 17.744C41.0599 18.1173 40.9319 18.4267 40.6759 18.672C40.4199 18.9173 40.0892 19.04 39.6839 19.04ZM48.2731 28V23.312C48.2731 22.2027 47.7878 21.648 46.8171 21.648C46.2945 21.648 45.8891 21.824 45.6011 22.176C45.3131 22.528 45.1691 23.0347 45.1691 23.696V28H42.9131V19.92H44.9771V21.056C45.2438 20.608 45.5905 20.272 46.0171 20.048C46.4545 19.8133 46.9451 19.696 47.4891 19.696C48.4385 19.696 49.1798 20.0053 49.7131 20.624C50.2571 21.232 50.5291 22.08 50.5291 23.168V28H48.2731ZM59.7415 27.328C59.3895 27.616 58.9308 27.84 58.3655 28C57.8108 28.16 57.2028 28.24 56.5415 28.24C55.1442 28.24 54.0455 27.8613 53.2455 27.104C52.4562 26.336 52.0615 25.2907 52.0615 23.968C52.0615 23.104 52.2375 22.352 52.5895 21.712C52.9522 21.0613 53.4375 20.5653 54.0455 20.224C54.6642 19.872 55.3628 19.696 56.1415 19.696C57.2722 19.696 58.1628 20.048 58.8135 20.752C59.4748 21.4453 59.8055 22.3947 59.8055 23.6V24.56H54.3175C54.4135 25.1573 54.6588 25.616 55.0535 25.936C55.4482 26.256 55.9655 26.416 56.6055 26.416C57.0322 26.416 57.4695 26.352 57.9175 26.224C58.3762 26.096 58.7495 25.936 59.0375 25.744L59.7415 27.328ZM56.0935 21.456C55.6135 21.456 55.2188 21.6 54.9095 21.888C54.6002 22.1653 54.4082 22.5653 54.3335 23.088H57.7255C57.6935 22.5653 57.5335 22.1653 57.2455 21.888C56.9682 21.6 56.5842 21.456 56.0935 21.456ZM67.7819 28C67.3872 28 67.0779 27.9253 66.8539 27.776C66.6405 27.6267 66.5019 27.3867 66.4379 27.056C66.1819 27.44 65.8245 27.7333 65.3659 27.936C64.9179 28.1387 64.4059 28.24 63.8299 28.24C62.9659 28.24 62.2832 28.016 61.7819 27.568C61.2805 27.1093 61.0299 26.4907 61.0299 25.712C61.0299 24.8373 61.3499 24.16 61.9899 23.68C62.6299 23.1893 63.5365 22.944 64.7099 22.944H66.0059C65.9739 22.4213 65.8139 22.0427 65.5259 21.808C65.2485 21.5733 64.8165 21.456 64.2299 21.456C63.4939 21.456 62.7845 21.664 62.1019 22.08L61.4619 20.592C61.8352 20.3147 62.2885 20.096 62.8219 19.936C63.3659 19.776 63.9365 19.696 64.5339 19.696C65.7072 19.696 66.6192 20 67.2699 20.608C67.9205 21.2053 68.2459 22.0427 68.2459 23.12V26.16H69.2219V28H67.7819ZM63.1739 25.456C63.1739 25.7973 63.2805 26.064 63.4939 26.256C63.7179 26.4373 64.0272 26.528 64.4219 26.528C64.9019 26.528 65.2859 26.3787 65.5739 26.08C65.8725 25.7813 66.0219 25.3813 66.0219 24.88V24.4H64.8859C64.2885 24.4 63.8512 24.4853 63.5739 24.656C63.3072 24.8267 63.1739 25.0933 63.1739 25.456ZM75.7694 21.984C75.5454 21.92 75.2467 21.888 74.8734 21.888C74.2227 21.888 73.716 22.08 73.3534 22.464C73.0014 22.848 72.8254 23.3813 72.8254 24.064V28H70.5694V19.92H72.6334V21.36C72.8574 20.8587 73.172 20.4747 73.5774 20.208C73.9934 19.9307 74.468 19.792 75.0014 19.792C75.2894 19.792 75.5454 19.8347 75.7694 19.92V21.984Z" fill="black"/>
</svg>
