<svg width="90" height="44" viewBox="0 0 90 44" fill="none" xmlns="http://www.w3.org/2000/svg">
<rect x="1" y="1" width="88" height="42" rx="4" fill="white"/>
<rect x="1" y="1" width="88" height="42" rx="4" stroke="black" stroke-width="2" stroke-linejoin="round"/>
<path d="M19.328 28L17.104 24.32L15.056 28H12.256L15.696 22.544L12.416 17.28H15.328L17.344 20.736L19.28 17.28H22.08L18.736 22.512L22.24 28H19.328ZM22.9075 22.72H27.4195V24.832H22.9075V22.72ZM34.3486 28.256C33.2606 28.256 32.3006 28.0107 31.4686 27.52C30.6366 27.0293 29.9966 26.3627 29.5486 25.52C29.1113 24.6667 28.8926 23.7067 28.8926 22.64C28.8926 21.52 29.1273 20.5333 29.5966 19.68C30.0766 18.8267 30.7273 18.1707 31.5486 17.712C32.37 17.2533 33.3033 17.024 34.3486 17.024C35.4366 17.024 36.3966 17.2693 37.2286 17.76C38.0606 18.2507 38.6953 18.9227 39.1326 19.776C39.5806 20.6187 39.8046 21.5733 39.8046 22.64C39.8046 23.76 39.5646 24.7467 39.0846 25.6C38.6153 26.4533 37.97 27.1093 37.1486 27.568C36.3273 28.0267 35.394 28.256 34.3486 28.256ZM34.3486 26.032C35.234 26.032 35.9486 25.7227 36.4926 25.104C37.0366 24.4747 37.3086 23.6533 37.3086 22.64C37.3086 21.6267 37.0366 20.8107 36.4926 20.192C35.9486 19.5627 35.234 19.248 34.3486 19.248C33.4633 19.248 32.7486 19.5627 32.2046 20.192C31.6606 20.8107 31.3886 21.6267 31.3886 22.64C31.3886 23.6533 31.6606 24.4747 32.2046 25.104C32.7486 25.7227 33.4633 26.032 34.3486 26.032ZM46.7225 21.984C46.4985 21.92 46.1998 21.888 45.8265 21.888C45.1758 21.888 44.6692 22.08 44.3065 22.464C43.9545 22.848 43.7785 23.3813 43.7785 24.064V28H41.5225V19.92H43.5865V21.36C43.8105 20.8587 44.1252 20.4747 44.5305 20.208C44.9465 19.9307 45.4212 19.792 45.9545 19.792C46.2425 19.792 46.4985 19.8347 46.7225 19.92V21.984ZM48.8496 28V21.76H47.6816V19.92H49.8576C50.2843 19.92 50.599 20.0213 50.8016 20.224C51.0043 20.4267 51.1056 20.7413 51.1056 21.168V28H48.8496ZM49.7776 19.04C49.3723 19.04 49.0416 18.9173 48.7856 18.672C48.5296 18.4267 48.4016 18.1173 48.4016 17.744C48.4016 17.3707 48.5296 17.0613 48.7856 16.816C49.0416 16.5707 49.3723 16.448 49.7776 16.448C50.183 16.448 50.5136 16.5707 50.7696 16.816C51.0256 17.0613 51.1536 17.3707 51.1536 17.744C51.1536 18.1173 51.0256 18.4267 50.7696 18.672C50.5136 18.9173 50.183 19.04 49.7776 19.04ZM60.3509 27.328C59.9989 27.616 59.5402 27.84 58.9749 28C58.4202 28.16 57.8122 28.24 57.1509 28.24C55.7535 28.24 54.6549 27.8613 53.8549 27.104C53.0655 26.336 52.6709 25.2907 52.6709 23.968C52.6709 23.104 52.8469 22.352 53.1989 21.712C53.5615 21.0613 54.0469 20.5653 54.6549 20.224C55.2735 19.872 55.9722 19.696 56.7509 19.696C57.8815 19.696 58.7722 20.048 59.4229 20.752C60.0842 21.4453 60.4149 22.3947 60.4149 23.6V24.56H54.9269C55.0229 25.1573 55.2682 25.616 55.6629 25.936C56.0575 26.256 56.5749 26.416 57.2149 26.416C57.6415 26.416 58.0789 26.352 58.5269 26.224C58.9855 26.096 59.3589 25.936 59.6469 25.744L60.3509 27.328ZM56.7029 21.456C56.2229 21.456 55.8282 21.6 55.5189 21.888C55.2095 22.1653 55.0175 22.5653 54.9429 23.088H58.3349C58.3029 22.5653 58.1429 22.1653 57.8549 21.888C57.5775 21.6 57.1935 21.456 56.7029 21.456ZM67.3513 28V23.312C67.3513 22.2027 66.8659 21.648 65.8953 21.648C65.3726 21.648 64.9673 21.824 64.6793 22.176C64.3913 22.528 64.2473 23.0347 64.2473 23.696V28H61.9913V19.92H64.0553V21.056C64.3219 20.608 64.6686 20.272 65.0953 20.048C65.5326 19.8133 66.0233 19.696 66.5673 19.696C67.5166 19.696 68.2579 20.0053 68.7913 20.624C69.3353 21.232 69.6073 22.08 69.6073 23.168V28H67.3513ZM74.9834 28.24C74.034 28.24 73.314 27.984 72.8234 27.472C72.3327 26.9493 72.0874 26.1867 72.0874 25.184V21.76H70.7594V19.92H71.5754C71.8207 19.92 71.9967 19.872 72.1034 19.776C72.21 19.6693 72.2634 19.4933 72.2634 19.248V17.904H74.3434V19.92H76.6954V21.76H74.3434V24.912C74.3434 25.4133 74.4287 25.776 74.5994 26C74.7807 26.224 75.074 26.336 75.4794 26.336C75.8954 26.336 76.306 26.2453 76.7114 26.064L77.0794 27.744C76.834 27.904 76.5247 28.0267 76.1514 28.112C75.7887 28.1973 75.3994 28.24 74.9834 28.24Z" fill="black"/>
</svg>
