<svg width="88" height="44" viewBox="0 0 88 44" fill="none" xmlns="http://www.w3.org/2000/svg">
<rect x="1" y="1" width="86" height="42" rx="4" fill="#199ACC"/>
<rect x="1" y="1" width="86" height="42" rx="4" stroke="black" stroke-width="2" stroke-linejoin="round"/>
<path d="M18.544 28H16.144V24.32L12.128 17.28H14.848L17.376 22.096L19.888 17.28H22.56L18.544 24.32V28ZM22.1263 22.72H26.6383V24.832H22.1263V22.72ZM28.5434 28V17.28H30.9434V25.776H35.9194V28H28.5434ZM37.9746 28V21.76H36.8066V19.92H38.9826C39.4093 19.92 39.724 20.0213 39.9266 20.224C40.1293 20.4267 40.2306 20.7413 40.2306 21.168V28H37.9746ZM38.9026 19.04C38.4973 19.04 38.1666 18.9173 37.9106 18.672C37.6546 18.4267 37.5266 18.1173 37.5266 17.744C37.5266 17.3707 37.6546 17.0613 37.9106 16.816C38.1666 16.5707 38.4973 16.448 38.9026 16.448C39.308 16.448 39.6386 16.5707 39.8946 16.816C40.1506 17.0613 40.2786 17.3707 40.2786 17.744C40.2786 18.1173 40.1506 18.4267 39.8946 18.672C39.6386 18.9173 39.308 19.04 38.9026 19.04ZM47.4919 28V23.312C47.4919 22.2027 47.0065 21.648 46.0359 21.648C45.5132 21.648 45.1079 21.824 44.8199 22.176C44.5319 22.528 44.3879 23.0347 44.3879 23.696V28H42.1319V19.92H44.1959V21.056C44.4625 20.608 44.8092 20.272 45.2359 20.048C45.6732 19.8133 46.1639 19.696 46.7079 19.696C47.6572 19.696 48.3985 20.0053 48.9319 20.624C49.4759 21.232 49.7479 22.08 49.7479 23.168V28H47.4919ZM58.9603 27.328C58.6083 27.616 58.1496 27.84 57.5843 28C57.0296 28.16 56.4216 28.24 55.7603 28.24C54.3629 28.24 53.2643 27.8613 52.4643 27.104C51.6749 26.336 51.2803 25.2907 51.2803 23.968C51.2803 23.104 51.4563 22.352 51.8083 21.712C52.1709 21.0613 52.6563 20.5653 53.2643 20.224C53.8829 19.872 54.5816 19.696 55.3602 19.696C56.4909 19.696 57.3816 20.048 58.0323 20.752C58.6936 21.4453 59.0243 22.3947 59.0243 23.6V24.56H53.5363C53.6323 25.1573 53.8776 25.616 54.2723 25.936C54.6669 26.256 55.1843 26.416 55.8243 26.416C56.2509 26.416 56.6883 26.352 57.1363 26.224C57.5949 26.096 57.9683 25.936 58.2563 25.744L58.9603 27.328ZM55.3123 21.456C54.8323 21.456 54.4376 21.6 54.1283 21.888C53.8189 22.1653 53.6269 22.5653 53.5523 23.088H56.9443C56.9123 22.5653 56.7523 22.1653 56.4643 21.888C56.1869 21.6 55.8029 21.456 55.3123 21.456ZM67.0006 28C66.606 28 66.2966 27.9253 66.0726 27.776C65.8593 27.6267 65.7206 27.3867 65.6566 27.056C65.4006 27.44 65.0433 27.7333 64.5846 27.936C64.1366 28.1387 63.6246 28.24 63.0486 28.24C62.1846 28.24 61.502 28.016 61.0006 27.568C60.4993 27.1093 60.2486 26.4907 60.2486 25.712C60.2486 24.8373 60.5686 24.16 61.2086 23.68C61.8486 23.1893 62.7553 22.944 63.9286 22.944H65.2246C65.1926 22.4213 65.0326 22.0427 64.7446 21.808C64.4673 21.5733 64.0353 21.456 63.4486 21.456C62.7126 21.456 62.0033 21.664 61.3206 22.08L60.6806 20.592C61.054 20.3147 61.5073 20.096 62.0406 19.936C62.5846 19.776 63.1553 19.696 63.7526 19.696C64.926 19.696 65.838 20 66.4886 20.608C67.1393 21.2053 67.4646 22.0427 67.4646 23.12V26.16H68.4406V28H67.0006ZM62.3926 25.456C62.3926 25.7973 62.4993 26.064 62.7126 26.256C62.9366 26.4373 63.246 26.528 63.6406 26.528C64.1206 26.528 64.5046 26.3787 64.7926 26.08C65.0913 25.7813 65.2406 25.3813 65.2406 24.88V24.4H64.1046C63.5073 24.4 63.07 24.4853 62.7926 24.656C62.526 24.8267 62.3926 25.0933 62.3926 25.456ZM74.9881 21.984C74.7641 21.92 74.4655 21.888 74.0921 21.888C73.4415 21.888 72.9348 22.08 72.5721 22.464C72.2201 22.848 72.0441 23.3813 72.0441 24.064V28H69.7881V19.92H71.8521V21.36C72.0761 20.8587 72.3908 20.4747 72.7961 20.208C73.2121 19.9307 73.6868 19.792 74.2201 19.792C74.5081 19.792 74.7641 19.8347 74.9881 19.92V21.984Z" fill="black"/>
</svg>
