<svg width="89" height="44" viewBox="0 0 89 44" fill="none" xmlns="http://www.w3.org/2000/svg">
<rect x="1" y="1" width="87" height="42" rx="4" fill="white"/>
<rect x="1" y="1" width="87" height="42" rx="4" stroke="black" stroke-width="2" stroke-linejoin="round"/>
<path d="M18.544 28H16.144V24.32L12.128 17.28H14.848L17.376 22.096L19.888 17.28H22.56L18.544 24.32V28ZM22.1263 22.72H26.6383V24.832H22.1263V22.72ZM33.5674 28.256C32.4794 28.256 31.5194 28.0107 30.6874 27.52C29.8554 27.0293 29.2154 26.3627 28.7674 25.52C28.33 24.6667 28.1114 23.7067 28.1114 22.64C28.1114 21.52 28.346 20.5333 28.8154 19.68C29.2954 18.8267 29.946 18.1707 30.7674 17.712C31.5887 17.2533 32.522 17.024 33.5674 17.024C34.6554 17.024 35.6154 17.2693 36.4474 17.76C37.2794 18.2507 37.914 18.9227 38.3514 19.776C38.7994 20.6187 39.0234 21.5733 39.0234 22.64C39.0234 23.76 38.7834 24.7467 38.3034 25.6C37.834 26.4533 37.1887 27.1093 36.3674 27.568C35.546 28.0267 34.6127 28.256 33.5674 28.256ZM33.5674 26.032C34.4527 26.032 35.1674 25.7227 35.7114 25.104C36.2554 24.4747 36.5274 23.6533 36.5274 22.64C36.5274 21.6267 36.2554 20.8107 35.7114 20.192C35.1674 19.5627 34.4527 19.248 33.5674 19.248C32.682 19.248 31.9674 19.5627 31.4234 20.192C30.8794 20.8107 30.6074 21.6267 30.6074 22.64C30.6074 23.6533 30.8794 24.4747 31.4234 25.104C31.9674 25.7227 32.682 26.032 33.5674 26.032ZM45.9413 21.984C45.7173 21.92 45.4186 21.888 45.0453 21.888C44.3946 21.888 43.8879 22.08 43.5253 22.464C43.1733 22.848 42.9973 23.3813 42.9973 24.064V28H40.7413V19.92H42.8053V21.36C43.0293 20.8587 43.3439 20.4747 43.7493 20.208C44.1653 19.9307 44.6399 19.792 45.1733 19.792C45.4613 19.792 45.7173 19.8347 45.9413 19.92V21.984ZM48.0684 28V21.76H46.9004V19.92H49.0764C49.503 19.92 49.8177 20.0213 50.0204 20.224C50.223 20.4267 50.3244 20.7413 50.3244 21.168V28H48.0684ZM48.9964 19.04C48.591 19.04 48.2604 18.9173 48.0044 18.672C47.7484 18.4267 47.6204 18.1173 47.6204 17.744C47.6204 17.3707 47.7484 17.0613 48.0044 16.816C48.2604 16.5707 48.591 16.448 48.9964 16.448C49.4017 16.448 49.7324 16.5707 49.9884 16.816C50.2444 17.0613 50.3724 17.3707 50.3724 17.744C50.3724 18.1173 50.2444 18.4267 49.9884 18.672C49.7324 18.9173 49.4017 19.04 48.9964 19.04ZM59.5696 27.328C59.2176 27.616 58.759 27.84 58.1936 28C57.639 28.16 57.031 28.24 56.3696 28.24C54.9723 28.24 53.8736 27.8613 53.0736 27.104C52.2843 26.336 51.8896 25.2907 51.8896 23.968C51.8896 23.104 52.0656 22.352 52.4176 21.712C52.7803 21.0613 53.2656 20.5653 53.8736 20.224C54.4923 19.872 55.191 19.696 55.9696 19.696C57.1003 19.696 57.991 20.048 58.6416 20.752C59.303 21.4453 59.6336 22.3947 59.6336 23.6V24.56H54.1456C54.2416 25.1573 54.487 25.616 54.8816 25.936C55.2763 26.256 55.7936 26.416 56.4336 26.416C56.8603 26.416 57.2976 26.352 57.7456 26.224C58.2043 26.096 58.5776 25.936 58.8656 25.744L59.5696 27.328ZM55.9216 21.456C55.4416 21.456 55.047 21.6 54.7376 21.888C54.4283 22.1653 54.2363 22.5653 54.1616 23.088H57.5536C57.5216 22.5653 57.3616 22.1653 57.0736 21.888C56.7963 21.6 56.4123 21.456 55.9216 21.456ZM66.57 28V23.312C66.57 22.2027 66.0847 21.648 65.114 21.648C64.5913 21.648 64.186 21.824 63.898 22.176C63.61 22.528 63.466 23.0347 63.466 23.696V28H61.21V19.92H63.274V21.056C63.5407 20.608 63.8873 20.272 64.314 20.048C64.7513 19.8133 65.242 19.696 65.786 19.696C66.7353 19.696 67.4767 20.0053 68.01 20.624C68.554 21.232 68.826 22.08 68.826 23.168V28H66.57ZM74.2021 28.24C73.2528 28.24 72.5328 27.984 72.0421 27.472C71.5515 26.9493 71.3061 26.1867 71.3061 25.184V21.76H69.9781V19.92H70.7941C71.0395 19.92 71.2155 19.872 71.3221 19.776C71.4288 19.6693 71.4821 19.4933 71.4821 19.248V17.904H73.5621V19.92H75.9141V21.76H73.5621V24.912C73.5621 25.4133 73.6475 25.776 73.8181 26C73.9995 26.224 74.2928 26.336 74.6981 26.336C75.1141 26.336 75.5248 26.2453 75.9301 26.064L76.2981 27.744C76.0528 27.904 75.7435 28.0267 75.3701 28.112C75.0075 28.1973 74.6181 28.24 74.2021 28.24Z" fill="black"/>
</svg>
