<svg width="88" height="44" viewBox="0 0 88 44" fill="none" xmlns="http://www.w3.org/2000/svg">
<rect x="1" y="1" width="86" height="42" rx="4" fill="#199ACC"/>
<rect x="1" y="1" width="86" height="42" rx="4" stroke="black" stroke-width="2" stroke-linejoin="round"/>
<path d="M21.184 25.888V28H12.672V26.048L18.016 19.392H12.88V17.28H21.088V19.232L15.728 25.888H21.184ZM22.22 22.72H26.732V24.832H22.22V22.72ZM28.6371 28V17.28H31.0371V25.776H36.0131V28H28.6371ZM38.0684 28V21.76H36.9004V19.92H39.0764C39.503 19.92 39.8177 20.0213 40.0204 20.224C40.223 20.4267 40.3244 20.7413 40.3244 21.168V28H38.0684ZM38.9964 19.04C38.591 19.04 38.2604 18.9173 38.0044 18.672C37.7484 18.4267 37.6204 18.1173 37.6204 17.744C37.6204 17.3707 37.7484 17.0613 38.0044 16.816C38.2604 16.5707 38.591 16.448 38.9964 16.448C39.4017 16.448 39.7324 16.5707 39.9884 16.816C40.2444 17.0613 40.3724 17.3707 40.3724 17.744C40.3724 18.1173 40.2444 18.4267 39.9884 18.672C39.7324 18.9173 39.4017 19.04 38.9964 19.04ZM47.5856 28V23.312C47.5856 22.2027 47.1003 21.648 46.1296 21.648C45.607 21.648 45.2016 21.824 44.9136 22.176C44.6256 22.528 44.4816 23.0347 44.4816 23.696V28H42.2256V19.92H44.2896V21.056C44.5563 20.608 44.903 20.272 45.3296 20.048C45.767 19.8133 46.2576 19.696 46.8016 19.696C47.751 19.696 48.4923 20.0053 49.0256 20.624C49.5696 21.232 49.8416 22.08 49.8416 23.168V28H47.5856ZM59.054 27.328C58.702 27.616 58.2433 27.84 57.678 28C57.1233 28.16 56.5153 28.24 55.854 28.24C54.4567 28.24 53.358 27.8613 52.558 27.104C51.7687 26.336 51.374 25.2907 51.374 23.968C51.374 23.104 51.55 22.352 51.902 21.712C52.2647 21.0613 52.75 20.5653 53.358 20.224C53.9767 19.872 54.6753 19.696 55.454 19.696C56.5847 19.696 57.4753 20.048 58.126 20.752C58.7873 21.4453 59.118 22.3947 59.118 23.6V24.56H53.63C53.726 25.1573 53.9713 25.616 54.366 25.936C54.7607 26.256 55.278 26.416 55.918 26.416C56.3447 26.416 56.782 26.352 57.23 26.224C57.6887 26.096 58.062 25.936 58.35 25.744L59.054 27.328ZM55.406 21.456C54.926 21.456 54.5313 21.6 54.222 21.888C53.9127 22.1653 53.7207 22.5653 53.646 23.088H57.038C57.006 22.5653 56.846 22.1653 56.558 21.888C56.2807 21.6 55.8967 21.456 55.406 21.456ZM67.0944 28C66.6997 28 66.3904 27.9253 66.1664 27.776C65.953 27.6267 65.8144 27.3867 65.7504 27.056C65.4944 27.44 65.137 27.7333 64.6784 27.936C64.2304 28.1387 63.7184 28.24 63.1424 28.24C62.2784 28.24 61.5957 28.016 61.0944 27.568C60.593 27.1093 60.3424 26.4907 60.3424 25.712C60.3424 24.8373 60.6624 24.16 61.3024 23.68C61.9424 23.1893 62.849 22.944 64.0224 22.944H65.3184C65.2864 22.4213 65.1264 22.0427 64.8384 21.808C64.561 21.5733 64.129 21.456 63.5424 21.456C62.8064 21.456 62.097 21.664 61.4144 22.08L60.7744 20.592C61.1477 20.3147 61.601 20.096 62.1344 19.936C62.6784 19.776 63.249 19.696 63.8464 19.696C65.0197 19.696 65.9317 20 66.5824 20.608C67.233 21.2053 67.5584 22.0427 67.5584 23.12V26.16H68.5344V28H67.0944ZM62.4864 25.456C62.4864 25.7973 62.593 26.064 62.8064 26.256C63.0304 26.4373 63.3397 26.528 63.7344 26.528C64.2144 26.528 64.5984 26.3787 64.8864 26.08C65.185 25.7813 65.3344 25.3813 65.3344 24.88V24.4H64.1984C63.601 24.4 63.1637 24.4853 62.8864 24.656C62.6197 24.8267 62.4864 25.0933 62.4864 25.456ZM75.0819 21.984C74.8579 21.92 74.5592 21.888 74.1859 21.888C73.5352 21.888 73.0285 22.08 72.6659 22.464C72.3139 22.848 72.1379 23.3813 72.1379 24.064V28H69.8819V19.92H71.9459V21.36C72.1699 20.8587 72.4845 20.4747 72.8899 20.208C73.3059 19.9307 73.7805 19.792 74.3139 19.792C74.6019 19.792 74.8579 19.8347 75.0819 19.92V21.984Z" fill="black"/>
</svg>
