<svg width="89" height="44" viewBox="0 0 89 44" fill="none" xmlns="http://www.w3.org/2000/svg">
<rect x="1" y="1" width="87" height="42" rx="4" fill="white"/>
<rect x="1" y="1" width="87" height="42" rx="4" stroke="black" stroke-width="2" stroke-linejoin="round"/>
<path d="M21.184 25.888V28H12.672V26.048L18.016 19.392H12.88V17.28H21.088V19.232L15.728 25.888H21.184ZM22.22 22.72H26.732V24.832H22.22V22.72ZM33.6611 28.256C32.5731 28.256 31.6131 28.0107 30.7811 27.52C29.9491 27.0293 29.3091 26.3627 28.8611 25.52C28.4238 24.6667 28.2051 23.7067 28.2051 22.64C28.2051 21.52 28.4398 20.5333 28.9091 19.68C29.3891 18.8267 30.0398 18.1707 30.8611 17.712C31.6825 17.2533 32.6158 17.024 33.6611 17.024C34.7491 17.024 35.7091 17.2693 36.5411 17.76C37.3731 18.2507 38.0078 18.9227 38.4451 19.776C38.8931 20.6187 39.1171 21.5733 39.1171 22.64C39.1171 23.76 38.8771 24.7467 38.3971 25.6C37.9278 26.4533 37.2825 27.1093 36.4611 27.568C35.6398 28.0267 34.7065 28.256 33.6611 28.256ZM33.6611 26.032C34.5465 26.032 35.2611 25.7227 35.8051 25.104C36.3491 24.4747 36.6211 23.6533 36.6211 22.64C36.6211 21.6267 36.3491 20.8107 35.8051 20.192C35.2611 19.5627 34.5465 19.248 33.6611 19.248C32.7758 19.248 32.0611 19.5627 31.5171 20.192C30.9731 20.8107 30.7011 21.6267 30.7011 22.64C30.7011 23.6533 30.9731 24.4747 31.5171 25.104C32.0611 25.7227 32.7758 26.032 33.6611 26.032ZM46.035 21.984C45.811 21.92 45.5123 21.888 45.139 21.888C44.4883 21.888 43.9817 22.08 43.619 22.464C43.267 22.848 43.091 23.3813 43.091 24.064V28H40.835V19.92H42.899V21.36C43.123 20.8587 43.4377 20.4747 43.843 20.208C44.259 19.9307 44.7337 19.792 45.267 19.792C45.555 19.792 45.811 19.8347 46.035 19.92V21.984ZM48.1621 28V21.76H46.9941V19.92H49.1701C49.5968 19.92 49.9115 20.0213 50.1141 20.224C50.3168 20.4267 50.4181 20.7413 50.4181 21.168V28H48.1621ZM49.0901 19.04C48.6848 19.04 48.3541 18.9173 48.0981 18.672C47.8421 18.4267 47.7141 18.1173 47.7141 17.744C47.7141 17.3707 47.8421 17.0613 48.0981 16.816C48.3541 16.5707 48.6848 16.448 49.0901 16.448C49.4955 16.448 49.8261 16.5707 50.0821 16.816C50.3381 17.0613 50.4661 17.3707 50.4661 17.744C50.4661 18.1173 50.3381 18.4267 50.0821 18.672C49.8261 18.9173 49.4955 19.04 49.0901 19.04ZM59.6634 27.328C59.3114 27.616 58.8527 27.84 58.2874 28C57.7327 28.16 57.1247 28.24 56.4634 28.24C55.066 28.24 53.9674 27.8613 53.1674 27.104C52.378 26.336 51.9834 25.2907 51.9834 23.968C51.9834 23.104 52.1594 22.352 52.5114 21.712C52.874 21.0613 53.3594 20.5653 53.9674 20.224C54.586 19.872 55.2847 19.696 56.0634 19.696C57.194 19.696 58.0847 20.048 58.7354 20.752C59.3967 21.4453 59.7274 22.3947 59.7274 23.6V24.56H54.2394C54.3354 25.1573 54.5807 25.616 54.9754 25.936C55.37 26.256 55.8874 26.416 56.5274 26.416C56.954 26.416 57.3914 26.352 57.8394 26.224C58.298 26.096 58.6714 25.936 58.9594 25.744L59.6634 27.328ZM56.0154 21.456C55.5354 21.456 55.1407 21.6 54.8314 21.888C54.522 22.1653 54.33 22.5653 54.2554 23.088H57.6474C57.6154 22.5653 57.4554 22.1653 57.1674 21.888C56.89 21.6 56.506 21.456 56.0154 21.456ZM66.6638 28V23.312C66.6638 22.2027 66.1784 21.648 65.2078 21.648C64.6851 21.648 64.2798 21.824 63.9918 22.176C63.7038 22.528 63.5598 23.0347 63.5598 23.696V28H61.3038V19.92H63.3678V21.056C63.6344 20.608 63.9811 20.272 64.4078 20.048C64.8451 19.8133 65.3358 19.696 65.8798 19.696C66.8291 19.696 67.5704 20.0053 68.1038 20.624C68.6478 21.232 68.9198 22.08 68.9198 23.168V28H66.6638ZM74.2959 28.24C73.3465 28.24 72.6265 27.984 72.1359 27.472C71.6452 26.9493 71.3999 26.1867 71.3999 25.184V21.76H70.0719V19.92H70.8879C71.1332 19.92 71.3092 19.872 71.4159 19.776C71.5225 19.6693 71.5759 19.4933 71.5759 19.248V17.904H73.6559V19.92H76.0079V21.76H73.6559V24.912C73.6559 25.4133 73.7412 25.776 73.9119 26C74.0932 26.224 74.3865 26.336 74.7919 26.336C75.2079 26.336 75.6185 26.2453 76.0239 26.064L76.3919 27.744C76.1465 27.904 75.8372 28.0267 75.4639 28.112C75.1012 28.1973 74.7119 28.24 74.2959 28.24Z" fill="black"/>
</svg>
